G75*
%MOIN*%
%OFA0B0*%
%FSLAX24Y24*%
%IPPOS*%
%LPD*%
%AMOC8*
5,1,8,0,0,1.08239X$1,22.5*
%
%ADD10C,0.0060*%
%ADD11R,0.0260X0.0800*%
%ADD12R,0.0480X0.0880*%
%ADD13R,0.1417X0.0866*%
%ADD14R,0.0591X0.0512*%
%ADD15C,0.0912*%
%ADD16OC8,0.0800*%
%ADD17R,0.0870X0.0240*%
%ADD18R,0.0512X0.0591*%
%ADD19OC8,0.0720*%
%ADD20C,0.0720*%
%ADD21R,0.0866X0.0236*%
%ADD22R,0.2362X0.1969*%
%ADD23R,0.0551X0.1969*%
%ADD24C,0.0160*%
%ADD25C,0.0120*%
%ADD26C,0.0396*%
%ADD27C,0.0320*%
D10*
X005280Y009422D02*
X004827Y009875D01*
X005129Y009724D02*
X005582Y009724D01*
X005736Y009878D02*
X006038Y010180D01*
X005736Y009878D02*
X005283Y010331D01*
X005129Y010177D02*
X005129Y009573D01*
X005890Y010636D02*
X006343Y010485D01*
X006192Y010938D01*
X006270Y011167D02*
X006270Y011318D01*
X006421Y011469D01*
X006572Y011469D01*
X006647Y011394D01*
X006647Y010790D01*
X006949Y011092D01*
D11*
X008430Y006660D03*
X008930Y006660D03*
X009430Y006660D03*
X009930Y006660D03*
X010430Y006660D03*
X010930Y006660D03*
X011430Y006660D03*
X011930Y006660D03*
X012430Y006660D03*
X012930Y006660D03*
X012930Y002700D03*
X012430Y002700D03*
X011930Y002700D03*
X011430Y002700D03*
X010930Y002700D03*
X010430Y002700D03*
X009930Y002700D03*
X009430Y002700D03*
X008930Y002700D03*
X008430Y002700D03*
D12*
X014170Y007800D03*
X015080Y007800D03*
X015990Y007800D03*
D13*
X015080Y005360D03*
D14*
X015080Y004254D03*
X015080Y003506D03*
X013880Y003506D03*
X013880Y004254D03*
D15*
X018190Y004288D03*
X018190Y006288D03*
X018190Y008288D03*
X018190Y010288D03*
X002670Y010272D03*
X002670Y008272D03*
X002670Y006272D03*
X002670Y004272D03*
D16*
X009180Y008080D03*
X010180Y008080D03*
X011180Y008080D03*
X012180Y008080D03*
X012180Y009080D03*
X011180Y009080D03*
X010180Y009080D03*
X009180Y009080D03*
D17*
X007210Y005030D03*
X007210Y004530D03*
X007210Y004030D03*
X007210Y003530D03*
X005150Y003530D03*
X005150Y004030D03*
X005150Y004530D03*
X005150Y005030D03*
D18*
X006106Y008380D03*
X006854Y008380D03*
X014206Y009080D03*
X014954Y009080D03*
D19*
X015180Y010880D03*
D20*
X014180Y010880D03*
D21*
X007204Y007530D03*
X007204Y007030D03*
X007204Y006530D03*
X007204Y006030D03*
X005156Y006030D03*
X005156Y006530D03*
X005156Y007030D03*
X005156Y007530D03*
D22*
X007915Y012980D03*
X014845Y012980D03*
D23*
X005380Y012341D03*
X005380Y015019D03*
D24*
X001160Y016070D02*
X001160Y001160D01*
X019692Y001160D01*
X019692Y016070D01*
X005824Y016070D01*
X005836Y016027D01*
X005836Y015076D01*
X005438Y015076D01*
X005438Y014961D01*
X005836Y014961D01*
X005836Y014011D01*
X005823Y013965D01*
X005800Y013924D01*
X005766Y013890D01*
X005725Y013867D01*
X005679Y013854D01*
X005438Y013854D01*
X005438Y014961D01*
X005322Y014961D01*
X004924Y014961D01*
X004924Y014011D01*
X004937Y013965D01*
X004960Y013924D01*
X004994Y013890D01*
X005035Y013867D01*
X005081Y013854D01*
X005322Y013854D01*
X005322Y014961D01*
X005322Y015076D01*
X004924Y015076D01*
X004924Y016027D01*
X004936Y016070D01*
X001160Y016070D01*
X001160Y016055D02*
X004932Y016055D01*
X004924Y015896D02*
X001160Y015896D01*
X001160Y015738D02*
X002292Y015738D01*
X002341Y015787D02*
X002173Y015619D01*
X002082Y015399D01*
X002082Y015161D01*
X002173Y014941D01*
X002341Y014773D01*
X002561Y014682D01*
X002799Y014682D01*
X003019Y014773D01*
X003187Y014941D01*
X003278Y015161D01*
X003278Y015399D01*
X003187Y015619D01*
X003019Y015787D01*
X002799Y015878D01*
X002561Y015878D01*
X002341Y015787D01*
X002156Y015579D02*
X001160Y015579D01*
X001160Y015421D02*
X002091Y015421D01*
X002082Y015262D02*
X001160Y015262D01*
X001160Y015104D02*
X002106Y015104D01*
X002171Y014945D02*
X001160Y014945D01*
X001160Y014787D02*
X002328Y014787D01*
X003032Y014787D02*
X004924Y014787D01*
X004924Y014945D02*
X003189Y014945D01*
X003254Y015104D02*
X004924Y015104D01*
X004924Y015262D02*
X003278Y015262D01*
X003269Y015421D02*
X004924Y015421D01*
X004924Y015579D02*
X003204Y015579D01*
X003068Y015738D02*
X004924Y015738D01*
X005322Y014945D02*
X005438Y014945D01*
X005438Y014787D02*
X005322Y014787D01*
X005322Y014628D02*
X005438Y014628D01*
X005438Y014470D02*
X005322Y014470D01*
X005322Y014311D02*
X005438Y014311D01*
X005438Y014153D02*
X005322Y014153D01*
X005322Y013994D02*
X005438Y013994D01*
X005831Y013994D02*
X006497Y013994D01*
X006497Y014063D02*
X006497Y013377D01*
X005893Y013377D01*
X005893Y013424D01*
X005754Y013563D01*
X005006Y013563D01*
X004867Y013424D01*
X004867Y013333D01*
X003656Y013333D01*
X003510Y013272D01*
X003398Y013160D01*
X002455Y012217D01*
X002343Y012105D01*
X002283Y011959D01*
X002283Y010862D01*
X002277Y010860D01*
X002082Y010664D01*
X001977Y010410D01*
X001977Y010134D01*
X002082Y009879D01*
X002273Y009689D01*
X002273Y008855D01*
X002082Y008664D01*
X001977Y008410D01*
X001977Y008134D01*
X002082Y007879D01*
X002277Y007684D01*
X002486Y007597D01*
X001417Y007597D01*
X001300Y007549D01*
X001211Y007460D01*
X001163Y007343D01*
X001163Y003017D01*
X001211Y002900D01*
X001300Y002811D01*
X001417Y002763D01*
X005743Y002763D01*
X005860Y002811D01*
X005949Y002900D01*
X005997Y003017D01*
X005997Y005114D01*
X006261Y004850D01*
X006350Y004761D01*
X006467Y004713D01*
X006605Y004713D01*
X006595Y004674D01*
X006595Y004530D01*
X007210Y004530D01*
X007825Y004530D01*
X007825Y004674D01*
X007813Y004719D01*
X007805Y004734D01*
X007882Y004812D01*
X007882Y005248D01*
X007743Y005387D01*
X006677Y005387D01*
X006649Y005360D01*
X006397Y005612D01*
X006397Y006143D01*
X006349Y006260D01*
X006260Y006349D01*
X005895Y006713D01*
X006010Y006761D01*
X006260Y007011D01*
X006349Y007100D01*
X006397Y007217D01*
X006397Y007847D01*
X006460Y007847D01*
X006530Y007917D01*
X006574Y007905D01*
X006806Y007905D01*
X006806Y008332D01*
X006902Y008332D01*
X006902Y007905D01*
X007134Y007905D01*
X007179Y007917D01*
X007220Y007941D01*
X007254Y007974D01*
X007278Y008015D01*
X007290Y008061D01*
X007290Y008332D01*
X006902Y008332D01*
X006902Y008428D01*
X006806Y008428D01*
X006806Y008855D01*
X006574Y008855D01*
X006530Y008843D01*
X006460Y008913D01*
X006423Y008913D01*
X006423Y008974D01*
X008012Y010563D01*
X011543Y010563D01*
X011660Y010611D01*
X013312Y012263D01*
X013426Y012263D01*
X013426Y011897D01*
X013565Y011758D01*
X013863Y011758D01*
X013863Y011395D01*
X013842Y011387D01*
X013673Y011218D01*
X013583Y010999D01*
X013583Y010761D01*
X013673Y010542D01*
X013842Y010373D01*
X013863Y010365D01*
X013863Y009613D01*
X013852Y009613D01*
X013713Y009474D01*
X013713Y008686D01*
X013852Y008547D01*
X013889Y008547D01*
X013889Y008477D01*
X013832Y008477D01*
X013693Y008338D01*
X013693Y007262D01*
X013832Y007123D01*
X014508Y007123D01*
X014625Y007239D01*
X014742Y007123D01*
X014763Y007123D01*
X014763Y006030D01*
X014273Y006030D01*
X014134Y005891D01*
X014134Y004828D01*
X014215Y004747D01*
X013486Y004747D01*
X013347Y004608D01*
X013347Y004571D01*
X011191Y004571D01*
X011074Y004523D01*
X010250Y003699D01*
X010161Y003610D01*
X010113Y003493D01*
X010113Y003337D01*
X009702Y003337D01*
X009680Y003316D01*
X009658Y003337D01*
X009202Y003337D01*
X009180Y003316D01*
X009158Y003337D01*
X008702Y003337D01*
X008680Y003316D01*
X008658Y003337D01*
X008202Y003337D01*
X008063Y003198D01*
X008063Y002202D01*
X008202Y002063D01*
X008658Y002063D01*
X008680Y002084D01*
X008702Y002063D01*
X009158Y002063D01*
X009180Y002084D01*
X009202Y002063D01*
X009658Y002063D01*
X009680Y002084D01*
X009702Y002063D01*
X010158Y002063D01*
X010180Y002084D01*
X010202Y002063D01*
X010658Y002063D01*
X010729Y002133D01*
X010731Y002132D01*
X010776Y002120D01*
X010930Y002120D01*
X011084Y002120D01*
X011129Y002132D01*
X011131Y002133D01*
X011202Y002063D01*
X011658Y002063D01*
X011680Y002084D01*
X011702Y002063D01*
X012158Y002063D01*
X012180Y002084D01*
X012202Y002063D01*
X012658Y002063D01*
X012680Y002084D01*
X012702Y002063D01*
X013158Y002063D01*
X013297Y002202D01*
X013297Y003198D01*
X013158Y003337D01*
X012702Y003337D01*
X012680Y003316D01*
X012658Y003337D01*
X012202Y003337D01*
X012180Y003316D01*
X012158Y003337D01*
X011702Y003337D01*
X011680Y003316D01*
X011658Y003337D01*
X011202Y003337D01*
X011131Y003267D01*
X011129Y003268D01*
X011084Y003280D01*
X010930Y003280D01*
X010930Y002700D01*
X010930Y002700D01*
X010930Y003280D01*
X010776Y003280D01*
X010747Y003272D01*
X010747Y003298D01*
X011386Y003937D01*
X013347Y003937D01*
X013347Y003900D01*
X013417Y003830D01*
X013405Y003786D01*
X013405Y003554D01*
X013832Y003554D01*
X013832Y003458D01*
X013405Y003458D01*
X013405Y003226D01*
X013417Y003181D01*
X013441Y003140D01*
X013474Y003106D01*
X013515Y003082D01*
X013561Y003070D01*
X013832Y003070D01*
X013832Y003458D01*
X013928Y003458D01*
X013928Y003554D01*
X014355Y003554D01*
X014355Y003786D01*
X014343Y003830D01*
X014413Y003900D01*
X014413Y003937D01*
X014547Y003937D01*
X014547Y003900D01*
X014617Y003830D01*
X014605Y003786D01*
X014605Y003554D01*
X015032Y003554D01*
X015032Y003458D01*
X014605Y003458D01*
X014605Y003226D01*
X014617Y003181D01*
X014641Y003140D01*
X014674Y003106D01*
X014715Y003082D01*
X014761Y003070D01*
X015032Y003070D01*
X015032Y003458D01*
X015128Y003458D01*
X015128Y003554D01*
X015555Y003554D01*
X015555Y003786D01*
X015543Y003830D01*
X015613Y003900D01*
X015613Y004608D01*
X015532Y004689D01*
X015887Y004689D01*
X016026Y004828D01*
X016026Y005891D01*
X015887Y006030D01*
X015397Y006030D01*
X015397Y007123D01*
X015418Y007123D01*
X015557Y007262D01*
X015557Y008338D01*
X015418Y008477D01*
X014742Y008477D01*
X014625Y008361D01*
X014523Y008462D01*
X014523Y008547D01*
X014560Y008547D01*
X014630Y008617D01*
X014674Y008605D01*
X014906Y008605D01*
X015002Y008605D01*
X015234Y008605D01*
X015279Y008617D01*
X015320Y008641D01*
X015354Y008674D01*
X015378Y008715D01*
X015390Y008761D01*
X015390Y009032D01*
X015002Y009032D01*
X015002Y008605D01*
X014906Y008605D02*
X014906Y009032D01*
X015002Y009032D01*
X015002Y009128D01*
X014906Y009128D01*
X014906Y009555D01*
X014674Y009555D01*
X014630Y009543D01*
X014560Y009613D01*
X014497Y009613D01*
X014497Y010365D01*
X014518Y010373D01*
X014687Y010542D01*
X014707Y010590D01*
X014956Y010340D01*
X015180Y010340D01*
X015404Y010340D01*
X015720Y010656D01*
X015720Y010880D01*
X015720Y011104D01*
X015404Y011420D01*
X015180Y011420D01*
X015180Y010880D01*
X015180Y010880D01*
X015720Y010880D01*
X015180Y010880D01*
X015180Y010880D01*
X015180Y011420D01*
X014956Y011420D01*
X014707Y011170D01*
X014687Y011218D01*
X014518Y011387D01*
X014497Y011395D01*
X014497Y011758D01*
X015949Y011758D01*
X017496Y010211D01*
X017496Y010150D01*
X017602Y009896D01*
X017792Y009705D01*
X017792Y008871D01*
X017602Y008681D01*
X017496Y008426D01*
X017496Y008150D01*
X017602Y007896D01*
X017797Y007700D01*
X018052Y007595D01*
X018328Y007595D01*
X018583Y007700D01*
X018778Y007896D01*
X018883Y008150D01*
X018883Y008426D01*
X018778Y008681D01*
X018587Y008871D01*
X018587Y009705D01*
X018778Y009896D01*
X018883Y010150D01*
X018883Y010426D01*
X018778Y010681D01*
X018583Y010876D01*
X018328Y010982D01*
X018052Y010982D01*
X017909Y010923D01*
X016263Y012569D01*
X016263Y014063D01*
X016124Y014202D01*
X013565Y014202D01*
X013426Y014063D01*
X013426Y012897D01*
X013117Y012897D01*
X013000Y012849D01*
X012911Y012760D01*
X011348Y011197D01*
X007817Y011197D01*
X007700Y011149D01*
X007611Y011060D01*
X005837Y009286D01*
X005789Y009169D01*
X005789Y008913D01*
X005752Y008913D01*
X005613Y008774D01*
X005613Y007986D01*
X005752Y007847D01*
X005763Y007847D01*
X005763Y007811D01*
X005688Y007886D01*
X004625Y007886D01*
X004486Y007746D01*
X004486Y007314D01*
X004519Y007280D01*
X004486Y007246D01*
X004486Y006814D01*
X004519Y006780D01*
X004486Y006746D01*
X004486Y006314D01*
X004519Y006280D01*
X004486Y006246D01*
X004486Y005823D01*
X003997Y006312D01*
X003997Y007343D01*
X003949Y007460D01*
X003860Y007549D01*
X003743Y007597D01*
X002854Y007597D01*
X003063Y007684D01*
X003258Y007879D01*
X003364Y008134D01*
X003364Y008410D01*
X003258Y008664D01*
X003068Y008855D01*
X003068Y009689D01*
X003258Y009879D01*
X003364Y010134D01*
X003364Y010410D01*
X003258Y010664D01*
X003077Y010845D01*
X003077Y011715D01*
X003900Y012538D01*
X004867Y012538D01*
X004867Y011259D01*
X005006Y011120D01*
X005754Y011120D01*
X005893Y011259D01*
X005893Y012583D01*
X006497Y012583D01*
X006497Y011897D01*
X006636Y011758D01*
X009195Y011758D01*
X009334Y011897D01*
X009334Y014063D01*
X009195Y014202D01*
X006636Y014202D01*
X006497Y014063D01*
X006587Y014153D02*
X005836Y014153D01*
X005836Y014311D02*
X019692Y014311D01*
X019692Y014153D02*
X016173Y014153D01*
X016263Y013994D02*
X019692Y013994D01*
X019692Y013836D02*
X016263Y013836D01*
X016263Y013677D02*
X019692Y013677D01*
X019692Y013519D02*
X016263Y013519D01*
X016263Y013360D02*
X019692Y013360D01*
X019692Y013202D02*
X016263Y013202D01*
X016263Y013043D02*
X019692Y013043D01*
X019692Y012885D02*
X016263Y012885D01*
X016263Y012726D02*
X019692Y012726D01*
X019692Y012568D02*
X016264Y012568D01*
X016423Y012409D02*
X019692Y012409D01*
X019692Y012251D02*
X016581Y012251D01*
X016740Y012092D02*
X019692Y012092D01*
X019692Y011934D02*
X016898Y011934D01*
X017057Y011775D02*
X019692Y011775D01*
X019692Y011617D02*
X017215Y011617D01*
X017374Y011458D02*
X019692Y011458D01*
X019692Y011300D02*
X017532Y011300D01*
X017691Y011141D02*
X019692Y011141D01*
X019692Y010983D02*
X017849Y010983D01*
X017201Y010507D02*
X015571Y010507D01*
X015720Y010666D02*
X017042Y010666D01*
X016884Y010824D02*
X015720Y010824D01*
X015720Y010983D02*
X016725Y010983D01*
X016567Y011141D02*
X015683Y011141D01*
X015524Y011300D02*
X016408Y011300D01*
X016250Y011458D02*
X014497Y011458D01*
X014497Y011617D02*
X016091Y011617D01*
X015180Y011300D02*
X015180Y011300D01*
X015180Y011141D02*
X015180Y011141D01*
X015180Y010983D02*
X015180Y010983D01*
X015180Y010880D02*
X015180Y010340D01*
X015180Y010880D01*
X015180Y010880D01*
X015180Y010824D02*
X015180Y010824D01*
X015180Y010666D02*
X015180Y010666D01*
X015180Y010507D02*
X015180Y010507D01*
X015180Y010349D02*
X015180Y010349D01*
X015412Y010349D02*
X017359Y010349D01*
X017496Y010190D02*
X014497Y010190D01*
X014497Y010032D02*
X017546Y010032D01*
X017625Y009873D02*
X014497Y009873D01*
X014497Y009715D02*
X017783Y009715D01*
X017792Y009556D02*
X014617Y009556D01*
X014906Y009398D02*
X015002Y009398D01*
X015002Y009555D02*
X015002Y009128D01*
X015390Y009128D01*
X015390Y009399D01*
X015378Y009445D01*
X015354Y009486D01*
X015320Y009519D01*
X015279Y009543D01*
X015234Y009555D01*
X015002Y009555D01*
X015002Y009239D02*
X014906Y009239D01*
X015002Y009081D02*
X017792Y009081D01*
X017792Y009239D02*
X015390Y009239D01*
X015390Y009398D02*
X017792Y009398D01*
X017792Y008922D02*
X015390Y008922D01*
X015390Y008764D02*
X017684Y008764D01*
X017571Y008605D02*
X015235Y008605D01*
X015449Y008447D02*
X017505Y008447D01*
X017496Y008288D02*
X016403Y008288D01*
X016398Y008309D02*
X016374Y008351D01*
X016341Y008384D01*
X016299Y008408D01*
X016254Y008420D01*
X016030Y008420D01*
X016030Y007840D01*
X015950Y007840D01*
X015950Y008420D01*
X015726Y008420D01*
X015681Y008408D01*
X015639Y008384D01*
X015606Y008351D01*
X015582Y008309D01*
X015570Y008264D01*
X015570Y007840D01*
X015950Y007840D01*
X015950Y007760D01*
X015570Y007760D01*
X015570Y007336D01*
X015582Y007291D01*
X015606Y007249D01*
X015639Y007216D01*
X015681Y007192D01*
X015726Y007180D01*
X015950Y007180D01*
X015950Y007760D01*
X016030Y007760D01*
X016030Y007840D01*
X016410Y007840D01*
X016410Y008264D01*
X016398Y008309D01*
X016410Y008130D02*
X017505Y008130D01*
X017571Y007971D02*
X016410Y007971D01*
X016410Y007760D02*
X016030Y007760D01*
X016030Y007180D01*
X016254Y007180D01*
X016299Y007192D01*
X016341Y007216D01*
X016374Y007249D01*
X016398Y007291D01*
X016410Y007336D01*
X016410Y007760D01*
X016410Y007654D02*
X017909Y007654D01*
X017685Y007813D02*
X016030Y007813D01*
X015950Y007813D02*
X015557Y007813D01*
X015557Y007971D02*
X015570Y007971D01*
X015557Y008130D02*
X015570Y008130D01*
X015557Y008288D02*
X015577Y008288D01*
X015950Y008288D02*
X016030Y008288D01*
X016030Y008130D02*
X015950Y008130D01*
X015950Y007971D02*
X016030Y007971D01*
X016030Y007654D02*
X015950Y007654D01*
X015950Y007496D02*
X016030Y007496D01*
X016030Y007337D02*
X015950Y007337D01*
X015570Y007337D02*
X015557Y007337D01*
X015557Y007496D02*
X015570Y007496D01*
X015557Y007654D02*
X015570Y007654D01*
X015080Y007800D02*
X015080Y005360D01*
X015080Y004254D01*
X013880Y004254D01*
X011254Y004254D01*
X010430Y003430D01*
X010430Y002700D01*
X010930Y002700D02*
X010930Y002700D01*
X010930Y002120D01*
X010930Y002700D01*
X010930Y002741D02*
X010930Y002741D01*
X010930Y002899D02*
X010930Y002899D01*
X010930Y003058D02*
X010930Y003058D01*
X010930Y003216D02*
X010930Y003216D01*
X010823Y003375D02*
X013405Y003375D01*
X013408Y003216D02*
X013280Y003216D01*
X013297Y003058D02*
X019692Y003058D01*
X019692Y003216D02*
X015552Y003216D01*
X015555Y003226D02*
X015555Y003458D01*
X015128Y003458D01*
X015128Y003070D01*
X015399Y003070D01*
X015445Y003082D01*
X015486Y003106D01*
X015519Y003140D01*
X015543Y003181D01*
X015555Y003226D01*
X015555Y003375D02*
X019692Y003375D01*
X019692Y003533D02*
X015128Y003533D01*
X015032Y003533D02*
X013928Y003533D01*
X013928Y003458D02*
X014355Y003458D01*
X014355Y003226D01*
X014343Y003181D01*
X014319Y003140D01*
X014286Y003106D01*
X014245Y003082D01*
X014199Y003070D01*
X013928Y003070D01*
X013928Y003458D01*
X013928Y003375D02*
X013832Y003375D01*
X013832Y003533D02*
X010982Y003533D01*
X011140Y003692D02*
X013405Y003692D01*
X013397Y003850D02*
X011299Y003850D01*
X010877Y004326D02*
X007804Y004326D01*
X007813Y004341D02*
X007789Y004299D01*
X007770Y004280D01*
X007789Y004261D01*
X007813Y004219D01*
X007825Y004174D01*
X007825Y004030D01*
X007210Y004030D01*
X007210Y004030D01*
X007210Y004030D01*
X007210Y004230D01*
X007210Y004530D01*
X007210Y004530D01*
X007825Y004530D01*
X007825Y004386D01*
X007813Y004341D01*
X007825Y004484D02*
X011035Y004484D01*
X010718Y004167D02*
X007825Y004167D01*
X007825Y004030D02*
X007210Y004030D01*
X007210Y004030D01*
X006595Y004030D01*
X006595Y004174D01*
X006607Y004219D01*
X006631Y004261D01*
X006650Y004280D01*
X006631Y004299D01*
X006607Y004341D01*
X006595Y004386D01*
X006595Y004530D01*
X007210Y004530D01*
X007210Y004530D01*
X007210Y004530D01*
X007210Y004030D01*
X007210Y003730D01*
X007210Y003530D01*
X007825Y003530D01*
X007825Y003674D01*
X007813Y003719D01*
X007789Y003761D01*
X007770Y003780D01*
X007789Y003799D01*
X007813Y003841D01*
X007825Y003886D01*
X007825Y004030D01*
X007825Y004009D02*
X010560Y004009D01*
X010401Y003850D02*
X007815Y003850D01*
X007820Y003692D02*
X010243Y003692D01*
X010129Y003533D02*
X007825Y003533D01*
X007825Y003530D02*
X007210Y003530D01*
X007210Y003530D01*
X007210Y003530D01*
X007210Y003230D01*
X007669Y003230D01*
X007714Y003242D01*
X007756Y003266D01*
X007789Y003299D01*
X007813Y003341D01*
X007825Y003386D01*
X007825Y003530D01*
X007822Y003375D02*
X010113Y003375D01*
X010930Y002582D02*
X010930Y002582D01*
X010930Y002424D02*
X010930Y002424D01*
X010930Y002265D02*
X010930Y002265D01*
X010702Y002107D02*
X011158Y002107D01*
X013202Y002107D02*
X017626Y002107D01*
X017582Y001999D02*
X017673Y002219D01*
X017841Y002387D01*
X018061Y002478D01*
X018299Y002478D01*
X018519Y002387D01*
X018687Y002219D01*
X018778Y001999D01*
X018778Y001761D01*
X018687Y001541D01*
X018519Y001373D01*
X018299Y001282D01*
X018061Y001282D01*
X017841Y001373D01*
X017673Y001541D01*
X017582Y001761D01*
X017582Y001999D01*
X017582Y001948D02*
X003278Y001948D01*
X003278Y001999D02*
X003187Y002219D01*
X003019Y002387D01*
X002799Y002478D01*
X002561Y002478D01*
X002341Y002387D01*
X002173Y002219D01*
X002082Y001999D01*
X002082Y001761D01*
X002173Y001541D01*
X002341Y001373D01*
X002561Y001282D01*
X002799Y001282D01*
X003019Y001373D01*
X003187Y001541D01*
X003278Y001761D01*
X003278Y001999D01*
X003234Y002107D02*
X008158Y002107D01*
X008063Y002265D02*
X003141Y002265D01*
X002931Y002424D02*
X008063Y002424D01*
X008063Y002582D02*
X001160Y002582D01*
X001160Y002424D02*
X002429Y002424D01*
X002219Y002265D02*
X001160Y002265D01*
X001160Y002107D02*
X002126Y002107D01*
X002082Y001948D02*
X001160Y001948D01*
X001160Y001790D02*
X002082Y001790D01*
X002136Y001631D02*
X001160Y001631D01*
X001160Y001473D02*
X002242Y001473D01*
X002484Y001314D02*
X001160Y001314D01*
X001160Y002741D02*
X008063Y002741D01*
X008063Y002899D02*
X005948Y002899D01*
X005997Y003058D02*
X008063Y003058D01*
X008080Y003216D02*
X005997Y003216D01*
X005997Y003375D02*
X006598Y003375D01*
X006595Y003386D02*
X006607Y003341D01*
X006631Y003299D01*
X006664Y003266D01*
X006706Y003242D01*
X006751Y003230D01*
X007210Y003230D01*
X007210Y003530D01*
X007210Y003530D01*
X007210Y003530D01*
X006595Y003530D01*
X006595Y003674D01*
X006607Y003719D01*
X006631Y003761D01*
X006650Y003780D01*
X006631Y003799D01*
X006607Y003841D01*
X006595Y003886D01*
X006595Y004030D01*
X007210Y004030D01*
X007210Y004030D01*
X007210Y003530D01*
X006595Y003530D01*
X006595Y003386D01*
X006595Y003533D02*
X005997Y003533D01*
X005997Y003692D02*
X006600Y003692D01*
X006605Y003850D02*
X005997Y003850D01*
X005997Y004009D02*
X006595Y004009D01*
X006595Y004167D02*
X005997Y004167D01*
X005997Y004326D02*
X006616Y004326D01*
X006595Y004484D02*
X005997Y004484D01*
X005997Y004643D02*
X006595Y004643D01*
X006310Y004801D02*
X005997Y004801D01*
X005997Y004960D02*
X006152Y004960D01*
X006530Y005030D02*
X007210Y005030D01*
X007210Y004484D02*
X007210Y004484D01*
X007210Y004326D02*
X007210Y004326D01*
X007210Y004167D02*
X007210Y004167D01*
X007210Y004009D02*
X007210Y004009D01*
X007210Y003850D02*
X007210Y003850D01*
X007210Y003692D02*
X007210Y003692D01*
X007210Y003533D02*
X007210Y003533D01*
X007210Y003375D02*
X007210Y003375D01*
X007825Y004643D02*
X013381Y004643D01*
X014161Y004801D02*
X007872Y004801D01*
X007882Y004960D02*
X014134Y004960D01*
X014134Y005118D02*
X007882Y005118D01*
X007854Y005277D02*
X014134Y005277D01*
X014134Y005435D02*
X012484Y005435D01*
X012460Y005411D02*
X012610Y005561D01*
X012699Y005650D01*
X012747Y005767D01*
X012747Y006023D01*
X013158Y006023D01*
X013297Y006162D01*
X013297Y007158D01*
X013158Y007297D01*
X012702Y007297D01*
X012680Y007276D01*
X012658Y007297D01*
X012202Y007297D01*
X012180Y007276D01*
X012158Y007297D01*
X011846Y007297D01*
X011992Y007443D01*
X012444Y007443D01*
X012817Y007816D01*
X012817Y008344D01*
X012541Y008621D01*
X012760Y008840D01*
X012760Y009060D01*
X012200Y009060D01*
X012200Y009100D01*
X012160Y009100D01*
X012160Y009660D01*
X011940Y009660D01*
X011680Y009400D01*
X011420Y009660D01*
X011200Y009660D01*
X011200Y009100D01*
X011160Y009100D01*
X011160Y009660D01*
X010940Y009660D01*
X010680Y009400D01*
X010420Y009660D01*
X010200Y009660D01*
X010200Y009100D01*
X010160Y009100D01*
X010160Y009660D01*
X009940Y009660D01*
X009721Y009441D01*
X009444Y009717D01*
X008916Y009717D01*
X008543Y009344D01*
X008543Y008892D01*
X008250Y008599D01*
X008161Y008510D01*
X008113Y008393D01*
X008113Y007208D01*
X008063Y007158D01*
X008063Y006746D01*
X008010Y006799D01*
X007893Y006847D01*
X007806Y006847D01*
X007817Y006888D01*
X007817Y007030D01*
X007817Y007172D01*
X007804Y007218D01*
X007781Y007259D01*
X007759Y007280D01*
X007781Y007301D01*
X007804Y007342D01*
X007817Y007388D01*
X007817Y007530D01*
X007817Y007672D01*
X007804Y007718D01*
X007781Y007759D01*
X007747Y007792D01*
X007706Y007816D01*
X007660Y007828D01*
X007204Y007828D01*
X007204Y007530D01*
X007817Y007530D01*
X007204Y007530D01*
X007204Y007530D01*
X007204Y007530D01*
X007204Y007232D01*
X007204Y007030D01*
X007817Y007030D01*
X007204Y007030D01*
X007204Y007030D01*
X007204Y007030D01*
X007204Y007530D01*
X007204Y007530D01*
X007204Y007828D01*
X006747Y007828D01*
X006701Y007816D01*
X006660Y007792D01*
X006627Y007759D01*
X006603Y007718D01*
X006591Y007672D01*
X006591Y007530D01*
X006591Y007388D01*
X006603Y007342D01*
X006627Y007301D01*
X006648Y007280D01*
X006627Y007259D01*
X006603Y007218D01*
X006591Y007172D01*
X006591Y007030D01*
X006591Y006888D01*
X006603Y006842D01*
X006612Y006826D01*
X006533Y006746D01*
X006533Y006314D01*
X006567Y006280D01*
X006533Y006246D01*
X006533Y005814D01*
X006672Y005674D01*
X007680Y005674D01*
X007711Y005600D01*
X007900Y005411D01*
X008017Y005363D01*
X012343Y005363D01*
X012460Y005411D01*
X012610Y005561D02*
X012610Y005561D01*
X012642Y005594D02*
X014134Y005594D01*
X014134Y005752D02*
X012741Y005752D01*
X012747Y005911D02*
X014153Y005911D01*
X014763Y006069D02*
X013205Y006069D01*
X013297Y006228D02*
X014763Y006228D01*
X014763Y006386D02*
X013297Y006386D01*
X013297Y006545D02*
X014763Y006545D01*
X014763Y006703D02*
X013297Y006703D01*
X013297Y006862D02*
X014763Y006862D01*
X014763Y007020D02*
X013297Y007020D01*
X013277Y007179D02*
X013776Y007179D01*
X013693Y007337D02*
X011886Y007337D01*
X011430Y007330D02*
X011430Y006660D01*
X010930Y006660D02*
X010930Y007830D01*
X011180Y008080D01*
X010430Y007830D02*
X010430Y006660D01*
X009930Y006660D02*
X009930Y007330D01*
X009180Y008080D01*
X008430Y008330D02*
X008430Y006660D01*
X008063Y006862D02*
X007810Y006862D01*
X007817Y007020D02*
X008063Y007020D01*
X008083Y007179D02*
X007815Y007179D01*
X007801Y007337D02*
X008113Y007337D01*
X008113Y007496D02*
X007817Y007496D01*
X007817Y007654D02*
X008113Y007654D01*
X008113Y007813D02*
X007712Y007813D01*
X008113Y007971D02*
X007251Y007971D01*
X007290Y008130D02*
X008113Y008130D01*
X008113Y008288D02*
X007290Y008288D01*
X007290Y008428D02*
X006902Y008428D01*
X006902Y008855D01*
X007134Y008855D01*
X007179Y008843D01*
X007220Y008819D01*
X007254Y008786D01*
X007278Y008745D01*
X007290Y008699D01*
X007290Y008428D01*
X007290Y008447D02*
X008135Y008447D01*
X008256Y008605D02*
X007290Y008605D01*
X007267Y008764D02*
X008415Y008764D01*
X008543Y008922D02*
X006423Y008922D01*
X006529Y009081D02*
X008543Y009081D01*
X008543Y009239D02*
X006688Y009239D01*
X006846Y009398D02*
X008596Y009398D01*
X008754Y009556D02*
X007005Y009556D01*
X007163Y009715D02*
X008913Y009715D01*
X009447Y009715D02*
X013863Y009715D01*
X013863Y009873D02*
X007322Y009873D01*
X007480Y010032D02*
X013863Y010032D01*
X013863Y010190D02*
X007639Y010190D01*
X007798Y010349D02*
X013863Y010349D01*
X013708Y010507D02*
X007956Y010507D01*
X007880Y010880D02*
X011480Y010880D01*
X013180Y012580D01*
X014445Y012580D01*
X014562Y012698D01*
X014845Y012980D01*
X014445Y012580D02*
X014180Y012315D01*
X014180Y010880D01*
X014180Y009106D01*
X014206Y009080D01*
X014206Y007836D01*
X014170Y007800D01*
X013693Y007813D02*
X012814Y007813D01*
X012817Y007971D02*
X013693Y007971D01*
X013693Y008130D02*
X012817Y008130D01*
X012817Y008288D02*
X013693Y008288D01*
X013801Y008447D02*
X012715Y008447D01*
X012557Y008605D02*
X013794Y008605D01*
X013713Y008764D02*
X012684Y008764D01*
X012760Y008922D02*
X013713Y008922D01*
X013713Y009081D02*
X012200Y009081D01*
X012200Y009100D02*
X012760Y009100D01*
X012760Y009320D01*
X012420Y009660D01*
X012200Y009660D01*
X012200Y009100D01*
X012160Y009100D02*
X012160Y009060D01*
X011200Y009060D01*
X011200Y009100D01*
X011760Y009100D01*
X012160Y009100D01*
X012160Y009081D02*
X011200Y009081D01*
X011160Y009081D02*
X010200Y009081D01*
X010200Y009100D02*
X010760Y009100D01*
X011160Y009100D01*
X011160Y009060D01*
X010200Y009060D01*
X010200Y009100D01*
X010200Y009239D02*
X010160Y009239D01*
X010160Y009398D02*
X010200Y009398D01*
X010200Y009556D02*
X010160Y009556D01*
X009836Y009556D02*
X009606Y009556D01*
X009180Y009080D02*
X008430Y008330D01*
X007204Y007813D02*
X007204Y007813D01*
X007204Y007654D02*
X007204Y007654D01*
X007204Y007530D02*
X007204Y007530D01*
X006591Y007530D01*
X007204Y007530D01*
X007204Y007496D02*
X007204Y007496D01*
X007204Y007337D02*
X007204Y007337D01*
X007204Y007179D02*
X007204Y007179D01*
X007204Y007030D02*
X007204Y007030D01*
X006591Y007030D01*
X007204Y007030D01*
X007204Y006530D02*
X007830Y006530D01*
X007980Y006380D01*
X007980Y005780D01*
X008080Y005680D01*
X012280Y005680D01*
X012430Y005830D01*
X012430Y006660D01*
X012497Y007496D02*
X013693Y007496D01*
X013693Y007654D02*
X012656Y007654D01*
X012180Y008080D02*
X011430Y007330D01*
X010430Y007830D02*
X010180Y008080D01*
X011160Y009239D02*
X011200Y009239D01*
X011200Y009398D02*
X011160Y009398D01*
X011160Y009556D02*
X011200Y009556D01*
X011524Y009556D02*
X011836Y009556D01*
X012160Y009556D02*
X012200Y009556D01*
X012200Y009398D02*
X012160Y009398D01*
X012160Y009239D02*
X012200Y009239D01*
X012524Y009556D02*
X013795Y009556D01*
X013713Y009398D02*
X012683Y009398D01*
X012760Y009239D02*
X013713Y009239D01*
X014618Y008605D02*
X014673Y008605D01*
X014711Y008447D02*
X014539Y008447D01*
X014906Y008764D02*
X015002Y008764D01*
X015002Y008922D02*
X014906Y008922D01*
X014948Y010349D02*
X014497Y010349D01*
X014652Y010507D02*
X014789Y010507D01*
X014836Y011300D02*
X014605Y011300D01*
X013863Y011458D02*
X012507Y011458D01*
X012349Y011300D02*
X013755Y011300D01*
X013641Y011141D02*
X012190Y011141D01*
X012032Y010983D02*
X013583Y010983D01*
X013583Y010824D02*
X011873Y010824D01*
X011715Y010666D02*
X013622Y010666D01*
X013863Y011617D02*
X012666Y011617D01*
X012824Y011775D02*
X013548Y011775D01*
X013426Y011934D02*
X012983Y011934D01*
X013141Y012092D02*
X013426Y012092D01*
X013426Y012251D02*
X013300Y012251D01*
X012877Y012726D02*
X009334Y012726D01*
X009334Y012568D02*
X012719Y012568D01*
X012560Y012409D02*
X009334Y012409D01*
X009334Y012251D02*
X012402Y012251D01*
X012243Y012092D02*
X009334Y012092D01*
X009334Y011934D02*
X012085Y011934D01*
X011926Y011775D02*
X009212Y011775D01*
X009334Y012885D02*
X013086Y012885D01*
X013426Y013043D02*
X009334Y013043D01*
X009334Y013202D02*
X013426Y013202D01*
X013426Y013360D02*
X009334Y013360D01*
X009334Y013519D02*
X013426Y013519D01*
X013426Y013677D02*
X009334Y013677D01*
X009334Y013836D02*
X013426Y013836D01*
X013426Y013994D02*
X009334Y013994D01*
X009244Y014153D02*
X013516Y014153D01*
X011768Y011617D02*
X006803Y011617D01*
X006799Y011621D02*
X006799Y011621D01*
X006723Y011696D01*
X006682Y011713D01*
X006625Y011737D01*
X006519Y011737D01*
X006519Y011737D01*
X006368Y011737D01*
X006269Y011696D01*
X006194Y011621D01*
X006194Y011621D01*
X006118Y011545D01*
X006043Y011470D01*
X006019Y011411D01*
X006002Y011371D01*
X006002Y011128D01*
X005976Y011105D01*
X005928Y011010D01*
X005921Y010906D01*
X005818Y010899D01*
X005722Y010851D01*
X005653Y010771D01*
X005619Y010670D01*
X005627Y010564D01*
X005674Y010469D01*
X005755Y010399D01*
X005847Y010368D01*
X005736Y010256D01*
X005434Y010558D01*
X005336Y010599D01*
X005230Y010599D01*
X005131Y010558D01*
X005056Y010483D01*
X005033Y010427D01*
X004978Y010404D01*
X004902Y010329D01*
X004862Y010231D01*
X004862Y010143D01*
X004774Y010143D01*
X004676Y010102D01*
X004600Y010027D01*
X004560Y009929D01*
X004560Y009822D01*
X004600Y009724D01*
X004902Y009422D01*
X004902Y009422D01*
X004978Y009347D01*
X005128Y009196D01*
X005227Y009155D01*
X005333Y009155D01*
X005432Y009196D01*
X005507Y009271D01*
X005547Y009369D01*
X005547Y009457D01*
X005635Y009457D01*
X005733Y009498D01*
X005809Y009573D01*
X005832Y009628D01*
X005887Y009651D01*
X006264Y010029D01*
X006305Y010127D01*
X006305Y010215D01*
X006308Y010214D01*
X006343Y010217D01*
X006377Y010214D01*
X006395Y010221D01*
X006415Y010222D01*
X006445Y010237D01*
X006478Y010248D01*
X006492Y010261D01*
X006510Y010269D01*
X006532Y010295D01*
X006558Y010318D01*
X006567Y010335D01*
X006579Y010350D01*
X006590Y010382D01*
X006606Y010413D01*
X006607Y010432D01*
X006613Y010451D01*
X006611Y010485D01*
X006613Y010519D01*
X006612Y010522D01*
X006701Y010522D01*
X006799Y010563D01*
X006874Y010638D01*
X007176Y010940D01*
X007217Y011038D01*
X007217Y011145D01*
X007176Y011243D01*
X007101Y011318D01*
X007002Y011359D01*
X006915Y011359D01*
X006915Y011447D01*
X006874Y011545D01*
X006799Y011621D01*
X006910Y011458D02*
X011609Y011458D01*
X011451Y011300D02*
X007120Y011300D01*
X007217Y011141D02*
X007692Y011141D01*
X007534Y010983D02*
X007194Y010983D01*
X007060Y010824D02*
X007375Y010824D01*
X007217Y010666D02*
X006901Y010666D01*
X007058Y010507D02*
X006612Y010507D01*
X006578Y010349D02*
X006900Y010349D01*
X006741Y010190D02*
X006305Y010190D01*
X006266Y010032D02*
X006583Y010032D01*
X006424Y009873D02*
X006109Y009873D01*
X006266Y009715D02*
X005950Y009715D01*
X006107Y009556D02*
X005792Y009556D01*
X005949Y009398D02*
X005547Y009398D01*
X005475Y009239D02*
X005817Y009239D01*
X005789Y009081D02*
X003068Y009081D01*
X003068Y009239D02*
X005085Y009239D01*
X004978Y009347D02*
X004978Y009347D01*
X004927Y009398D02*
X003068Y009398D01*
X003068Y009556D02*
X004768Y009556D01*
X004610Y009715D02*
X003094Y009715D01*
X003252Y009873D02*
X004560Y009873D01*
X004605Y010032D02*
X003321Y010032D01*
X003364Y010190D02*
X004862Y010190D01*
X004922Y010349D02*
X003364Y010349D01*
X003323Y010507D02*
X005080Y010507D01*
X005485Y010507D02*
X005655Y010507D01*
X005644Y010349D02*
X005828Y010349D01*
X005619Y010666D02*
X003257Y010666D01*
X003098Y010824D02*
X005699Y010824D01*
X005927Y010983D02*
X003077Y010983D01*
X003077Y011141D02*
X004985Y011141D01*
X004867Y011300D02*
X003077Y011300D01*
X003077Y011458D02*
X004867Y011458D01*
X004867Y011617D02*
X003077Y011617D01*
X003137Y011775D02*
X004867Y011775D01*
X004867Y011934D02*
X003296Y011934D01*
X003454Y012092D02*
X004867Y012092D01*
X004867Y012251D02*
X003613Y012251D01*
X003771Y012409D02*
X004867Y012409D01*
X004867Y013360D02*
X001160Y013360D01*
X001160Y013202D02*
X003439Y013202D01*
X003398Y013160D02*
X003398Y013160D01*
X003281Y013043D02*
X001160Y013043D01*
X001160Y012885D02*
X003122Y012885D01*
X002964Y012726D02*
X001160Y012726D01*
X001160Y012568D02*
X002805Y012568D01*
X002647Y012409D02*
X001160Y012409D01*
X001160Y012251D02*
X002488Y012251D01*
X002338Y012092D02*
X001160Y012092D01*
X001160Y011934D02*
X002283Y011934D01*
X002283Y011775D02*
X001160Y011775D01*
X001160Y011617D02*
X002283Y011617D01*
X002283Y011458D02*
X001160Y011458D01*
X001160Y011300D02*
X002283Y011300D01*
X002283Y011141D02*
X001160Y011141D01*
X001160Y010983D02*
X002283Y010983D01*
X002242Y010824D02*
X001160Y010824D01*
X001160Y010666D02*
X002083Y010666D01*
X002017Y010507D02*
X001160Y010507D01*
X001160Y010349D02*
X001977Y010349D01*
X001977Y010190D02*
X001160Y010190D01*
X001160Y010032D02*
X002019Y010032D01*
X002088Y009873D02*
X001160Y009873D01*
X001160Y009715D02*
X002247Y009715D01*
X002273Y009556D02*
X001160Y009556D01*
X001160Y009398D02*
X002273Y009398D01*
X002273Y009239D02*
X001160Y009239D01*
X001160Y009081D02*
X002273Y009081D01*
X002273Y008922D02*
X001160Y008922D01*
X001160Y008764D02*
X002181Y008764D01*
X002058Y008605D02*
X001160Y008605D01*
X001160Y008447D02*
X001992Y008447D01*
X001977Y008288D02*
X001160Y008288D01*
X001160Y008130D02*
X001979Y008130D01*
X002044Y007971D02*
X001160Y007971D01*
X001160Y007813D02*
X002149Y007813D01*
X002349Y007654D02*
X001160Y007654D01*
X001160Y007496D02*
X001247Y007496D01*
X001163Y007337D02*
X001160Y007337D01*
X001160Y007179D02*
X001163Y007179D01*
X001160Y007020D02*
X001163Y007020D01*
X001160Y006862D02*
X001163Y006862D01*
X001160Y006703D02*
X001163Y006703D01*
X001160Y006545D02*
X001163Y006545D01*
X001160Y006386D02*
X001163Y006386D01*
X001160Y006228D02*
X001163Y006228D01*
X001160Y006069D02*
X001163Y006069D01*
X001160Y005911D02*
X001163Y005911D01*
X001160Y005752D02*
X001163Y005752D01*
X001160Y005594D02*
X001163Y005594D01*
X001160Y005435D02*
X001163Y005435D01*
X001160Y005277D02*
X001163Y005277D01*
X001160Y005118D02*
X001163Y005118D01*
X001160Y004960D02*
X001163Y004960D01*
X001160Y004801D02*
X001163Y004801D01*
X001160Y004643D02*
X001163Y004643D01*
X001160Y004484D02*
X001163Y004484D01*
X001160Y004326D02*
X001163Y004326D01*
X001160Y004167D02*
X001163Y004167D01*
X001160Y004009D02*
X001163Y004009D01*
X001160Y003850D02*
X001163Y003850D01*
X001160Y003692D02*
X001163Y003692D01*
X001160Y003533D02*
X001163Y003533D01*
X001160Y003375D02*
X001163Y003375D01*
X001160Y003216D02*
X001163Y003216D01*
X001160Y003058D02*
X001163Y003058D01*
X001160Y002899D02*
X001212Y002899D01*
X001480Y003080D02*
X005680Y003080D01*
X005680Y005180D01*
X005380Y005480D01*
X004380Y005480D01*
X003680Y006180D01*
X003680Y007280D01*
X001480Y007280D01*
X001480Y003080D01*
X001480Y003216D02*
X005680Y003216D01*
X005680Y003375D02*
X001480Y003375D01*
X001480Y003533D02*
X005680Y003533D01*
X005680Y003692D02*
X001480Y003692D01*
X001480Y003850D02*
X005680Y003850D01*
X005680Y004009D02*
X001480Y004009D01*
X001480Y004167D02*
X005680Y004167D01*
X005680Y004326D02*
X001480Y004326D01*
X001480Y004484D02*
X005680Y004484D01*
X005680Y004643D02*
X001480Y004643D01*
X001480Y004801D02*
X005680Y004801D01*
X005680Y004960D02*
X001480Y004960D01*
X001480Y005118D02*
X005680Y005118D01*
X005583Y005277D02*
X001480Y005277D01*
X001480Y005435D02*
X005425Y005435D01*
X006080Y005480D02*
X006530Y005030D01*
X006574Y005435D02*
X007876Y005435D01*
X007718Y005594D02*
X006415Y005594D01*
X006397Y005752D02*
X006595Y005752D01*
X006533Y005911D02*
X006397Y005911D01*
X006397Y006069D02*
X006533Y006069D01*
X006533Y006228D02*
X006363Y006228D01*
X006223Y006386D02*
X006533Y006386D01*
X006533Y006545D02*
X006064Y006545D01*
X005906Y006703D02*
X006533Y006703D01*
X006598Y006862D02*
X006110Y006862D01*
X006269Y007020D02*
X006591Y007020D01*
X006592Y007179D02*
X006382Y007179D01*
X006397Y007337D02*
X006606Y007337D01*
X006591Y007496D02*
X006397Y007496D01*
X006397Y007654D02*
X006591Y007654D01*
X006695Y007813D02*
X006397Y007813D01*
X006806Y007971D02*
X006902Y007971D01*
X006902Y008130D02*
X006806Y008130D01*
X006806Y008288D02*
X006902Y008288D01*
X006902Y008447D02*
X006806Y008447D01*
X006806Y008605D02*
X006902Y008605D01*
X006902Y008764D02*
X006806Y008764D01*
X006106Y009106D02*
X006106Y008380D01*
X006080Y008354D01*
X006080Y007280D01*
X005830Y007030D01*
X005156Y007030D01*
X005156Y006530D02*
X005630Y006530D01*
X006080Y006080D01*
X006080Y005480D01*
X004486Y005911D02*
X004398Y005911D01*
X004486Y006069D02*
X004240Y006069D01*
X004081Y006228D02*
X004486Y006228D01*
X004486Y006386D02*
X003997Y006386D01*
X003997Y006545D02*
X004486Y006545D01*
X004486Y006703D02*
X003997Y006703D01*
X003997Y006862D02*
X004486Y006862D01*
X004486Y007020D02*
X003997Y007020D01*
X003997Y007179D02*
X004486Y007179D01*
X004486Y007337D02*
X003997Y007337D01*
X003913Y007496D02*
X004486Y007496D01*
X004486Y007654D02*
X002991Y007654D01*
X003192Y007813D02*
X004552Y007813D01*
X003680Y007179D02*
X001480Y007179D01*
X001480Y007020D02*
X003680Y007020D01*
X003680Y006862D02*
X001480Y006862D01*
X001480Y006703D02*
X003680Y006703D01*
X003680Y006545D02*
X001480Y006545D01*
X001480Y006386D02*
X003680Y006386D01*
X003680Y006228D02*
X001480Y006228D01*
X001480Y006069D02*
X003791Y006069D01*
X003949Y005911D02*
X001480Y005911D01*
X001480Y005752D02*
X004108Y005752D01*
X004266Y005594D02*
X001480Y005594D01*
X003296Y007971D02*
X005628Y007971D01*
X005613Y008130D02*
X003362Y008130D01*
X003364Y008288D02*
X005613Y008288D01*
X005613Y008447D02*
X003348Y008447D01*
X003283Y008605D02*
X005613Y008605D01*
X005613Y008764D02*
X003159Y008764D01*
X003068Y008922D02*
X005789Y008922D01*
X006106Y009106D02*
X007880Y010880D01*
X006619Y011775D02*
X005893Y011775D01*
X005893Y011617D02*
X006190Y011617D01*
X006118Y011545D02*
X006118Y011545D01*
X006038Y011458D02*
X005893Y011458D01*
X005893Y011300D02*
X006002Y011300D01*
X006002Y011141D02*
X005775Y011141D01*
X005893Y011934D02*
X006497Y011934D01*
X006497Y012092D02*
X005893Y012092D01*
X005893Y012251D02*
X006497Y012251D01*
X006497Y012409D02*
X005893Y012409D01*
X005893Y012568D02*
X006497Y012568D01*
X006497Y013519D02*
X005799Y013519D01*
X006497Y013677D02*
X001160Y013677D01*
X001160Y013519D02*
X004961Y013519D01*
X004929Y013994D02*
X001160Y013994D01*
X001160Y013836D02*
X006497Y013836D01*
X005836Y014470D02*
X019692Y014470D01*
X019692Y014628D02*
X005836Y014628D01*
X005836Y014787D02*
X017828Y014787D01*
X017841Y014773D02*
X018061Y014682D01*
X018299Y014682D01*
X018519Y014773D01*
X018687Y014941D01*
X018778Y015161D01*
X018778Y015399D01*
X018687Y015619D01*
X018519Y015787D01*
X018299Y015878D01*
X018061Y015878D01*
X017841Y015787D01*
X017673Y015619D01*
X017582Y015399D01*
X017582Y015161D01*
X017673Y014941D01*
X017841Y014773D01*
X017671Y014945D02*
X005836Y014945D01*
X005836Y015104D02*
X017606Y015104D01*
X017582Y015262D02*
X005836Y015262D01*
X005836Y015421D02*
X017591Y015421D01*
X017656Y015579D02*
X005836Y015579D01*
X005836Y015738D02*
X017792Y015738D01*
X018568Y015738D02*
X019692Y015738D01*
X019692Y015896D02*
X005836Y015896D01*
X005828Y016055D02*
X019692Y016055D01*
X019692Y015579D02*
X018704Y015579D01*
X018769Y015421D02*
X019692Y015421D01*
X019692Y015262D02*
X018778Y015262D01*
X018754Y015104D02*
X019692Y015104D01*
X019692Y014945D02*
X018689Y014945D01*
X018532Y014787D02*
X019692Y014787D01*
X019692Y010824D02*
X018635Y010824D01*
X018784Y010666D02*
X019692Y010666D01*
X019692Y010507D02*
X018850Y010507D01*
X018883Y010349D02*
X019692Y010349D01*
X019692Y010190D02*
X018883Y010190D01*
X018834Y010032D02*
X019692Y010032D01*
X019692Y009873D02*
X018755Y009873D01*
X018597Y009715D02*
X019692Y009715D01*
X019692Y009556D02*
X018587Y009556D01*
X018587Y009398D02*
X019692Y009398D01*
X019692Y009239D02*
X018587Y009239D01*
X018587Y009081D02*
X019692Y009081D01*
X019692Y008922D02*
X018587Y008922D01*
X018695Y008764D02*
X019692Y008764D01*
X019692Y008605D02*
X018809Y008605D01*
X018875Y008447D02*
X019692Y008447D01*
X019692Y008288D02*
X018883Y008288D01*
X018875Y008130D02*
X019692Y008130D01*
X019692Y007971D02*
X018809Y007971D01*
X018695Y007813D02*
X019692Y007813D01*
X019692Y007654D02*
X018470Y007654D01*
X018339Y006909D02*
X018240Y006924D01*
X018238Y006924D01*
X018238Y006336D01*
X018826Y006336D01*
X018826Y006338D01*
X018810Y006437D01*
X018779Y006532D01*
X018734Y006622D01*
X018675Y006703D01*
X018604Y006773D01*
X018523Y006832D01*
X018434Y006878D01*
X018339Y006909D01*
X018238Y006862D02*
X018142Y006862D01*
X018142Y006924D02*
X018140Y006924D01*
X018041Y006909D01*
X017946Y006878D01*
X017857Y006832D01*
X017776Y006773D01*
X017705Y006703D01*
X015397Y006703D01*
X015397Y006545D02*
X017607Y006545D01*
X017601Y006532D02*
X017570Y006437D01*
X017554Y006338D01*
X017554Y006336D01*
X018142Y006336D01*
X018142Y006240D01*
X018238Y006240D01*
X018238Y005652D01*
X018240Y005652D01*
X018339Y005668D01*
X018434Y005699D01*
X018523Y005744D01*
X018604Y005803D01*
X018675Y005874D01*
X018734Y005955D01*
X018779Y006044D01*
X018810Y006139D01*
X018826Y006238D01*
X018826Y006240D01*
X018238Y006240D01*
X018238Y006336D01*
X018142Y006336D01*
X018142Y006924D01*
X018142Y006703D02*
X018238Y006703D01*
X018238Y006545D02*
X018142Y006545D01*
X018142Y006386D02*
X018238Y006386D01*
X018238Y006228D02*
X018142Y006228D01*
X018142Y006240D02*
X018142Y005652D01*
X018140Y005652D01*
X018041Y005668D01*
X017946Y005699D01*
X017857Y005744D01*
X017776Y005803D01*
X017705Y005874D01*
X017646Y005955D01*
X017601Y006044D01*
X017570Y006139D01*
X017554Y006238D01*
X017554Y006240D01*
X018142Y006240D01*
X018142Y006069D02*
X018238Y006069D01*
X018238Y005911D02*
X018142Y005911D01*
X018142Y005752D02*
X018238Y005752D01*
X018534Y005752D02*
X019692Y005752D01*
X019692Y005594D02*
X016026Y005594D01*
X016026Y005752D02*
X017846Y005752D01*
X017678Y005911D02*
X016007Y005911D01*
X016026Y005435D02*
X019692Y005435D01*
X019692Y005277D02*
X016026Y005277D01*
X016026Y005118D02*
X019692Y005118D01*
X019692Y004960D02*
X016026Y004960D01*
X015999Y004801D02*
X017814Y004801D01*
X017776Y004773D02*
X017705Y004703D01*
X017646Y004622D01*
X017601Y004532D01*
X017570Y004437D01*
X017554Y004338D01*
X017554Y004336D01*
X018142Y004336D01*
X018142Y004240D01*
X018238Y004240D01*
X018238Y003652D01*
X018240Y003652D01*
X018339Y003668D01*
X018434Y003699D01*
X018523Y003744D01*
X018604Y003803D01*
X018675Y003874D01*
X018734Y003955D01*
X018779Y004044D01*
X018810Y004139D01*
X018826Y004238D01*
X018826Y004240D01*
X018238Y004240D01*
X018238Y004336D01*
X018826Y004336D01*
X018826Y004338D01*
X018810Y004437D01*
X018779Y004532D01*
X018734Y004622D01*
X018675Y004703D01*
X018604Y004773D01*
X018523Y004832D01*
X018434Y004878D01*
X018339Y004909D01*
X018240Y004924D01*
X018238Y004924D01*
X018238Y004336D01*
X018142Y004336D01*
X018142Y004924D01*
X018140Y004924D01*
X018041Y004909D01*
X017946Y004878D01*
X017857Y004832D01*
X017776Y004773D01*
X017661Y004643D02*
X015579Y004643D01*
X015613Y004484D02*
X017585Y004484D01*
X017554Y004240D02*
X017554Y004238D01*
X017570Y004139D01*
X017601Y004044D01*
X017646Y003955D01*
X017705Y003874D01*
X017776Y003803D01*
X017857Y003744D01*
X017946Y003699D01*
X018041Y003668D01*
X018140Y003652D01*
X018142Y003652D01*
X018142Y004240D01*
X017554Y004240D01*
X017565Y004167D02*
X015613Y004167D01*
X015613Y004009D02*
X017619Y004009D01*
X017729Y003850D02*
X015563Y003850D01*
X015555Y003692D02*
X017969Y003692D01*
X018142Y003692D02*
X018238Y003692D01*
X018238Y003850D02*
X018142Y003850D01*
X018142Y004009D02*
X018238Y004009D01*
X018238Y004167D02*
X018142Y004167D01*
X018142Y004326D02*
X015613Y004326D01*
X014605Y003692D02*
X014355Y003692D01*
X014363Y003850D02*
X014597Y003850D01*
X014605Y003375D02*
X014355Y003375D01*
X014352Y003216D02*
X014608Y003216D01*
X015032Y003216D02*
X015128Y003216D01*
X015128Y003375D02*
X015032Y003375D01*
X013928Y003216D02*
X013832Y003216D01*
X013297Y002899D02*
X019692Y002899D01*
X019692Y002741D02*
X013297Y002741D01*
X013297Y002582D02*
X019692Y002582D01*
X019692Y002424D02*
X018431Y002424D01*
X018641Y002265D02*
X019692Y002265D01*
X019692Y002107D02*
X018734Y002107D01*
X018778Y001948D02*
X019692Y001948D01*
X019692Y001790D02*
X018778Y001790D01*
X018724Y001631D02*
X019692Y001631D01*
X019692Y001473D02*
X018618Y001473D01*
X018376Y001314D02*
X019692Y001314D01*
X017984Y001314D02*
X002876Y001314D01*
X003118Y001473D02*
X017742Y001473D01*
X017636Y001631D02*
X003224Y001631D01*
X003278Y001790D02*
X017582Y001790D01*
X017719Y002265D02*
X013297Y002265D01*
X013297Y002424D02*
X017929Y002424D01*
X018411Y003692D02*
X019692Y003692D01*
X019692Y003850D02*
X018651Y003850D01*
X018761Y004009D02*
X019692Y004009D01*
X019692Y004167D02*
X018814Y004167D01*
X018795Y004484D02*
X019692Y004484D01*
X019692Y004326D02*
X018238Y004326D01*
X018238Y004484D02*
X018142Y004484D01*
X018142Y004643D02*
X018238Y004643D01*
X018238Y004801D02*
X018142Y004801D01*
X018566Y004801D02*
X019692Y004801D01*
X019692Y004643D02*
X018719Y004643D01*
X018701Y005911D02*
X019692Y005911D01*
X019692Y006069D02*
X018787Y006069D01*
X018824Y006228D02*
X019692Y006228D01*
X019692Y006386D02*
X018818Y006386D01*
X018773Y006545D02*
X019692Y006545D01*
X019692Y006703D02*
X018674Y006703D01*
X018466Y006862D02*
X019692Y006862D01*
X019692Y007020D02*
X015397Y007020D01*
X015397Y006862D02*
X017914Y006862D01*
X017705Y006703D02*
X017646Y006622D01*
X017601Y006532D01*
X017561Y006386D02*
X015397Y006386D01*
X015397Y006228D02*
X017556Y006228D01*
X017592Y006069D02*
X015397Y006069D01*
X015474Y007179D02*
X019692Y007179D01*
X019692Y007337D02*
X016410Y007337D01*
X016410Y007496D02*
X019692Y007496D01*
X014686Y007179D02*
X014564Y007179D01*
X010836Y009556D02*
X010524Y009556D01*
X005763Y007813D02*
X005761Y007813D01*
X004924Y014153D02*
X001160Y014153D01*
X001160Y014311D02*
X004924Y014311D01*
X004924Y014470D02*
X001160Y014470D01*
X001160Y014628D02*
X004924Y014628D01*
D25*
X016580Y007280D02*
X019580Y007280D01*
X019580Y003080D01*
X016580Y003080D01*
X016580Y007280D01*
X016580Y007198D02*
X019580Y007198D01*
X019580Y007079D02*
X016580Y007079D01*
X016580Y006961D02*
X019580Y006961D01*
X019580Y006842D02*
X016580Y006842D01*
X016580Y006724D02*
X019580Y006724D01*
X019580Y006605D02*
X016580Y006605D01*
X016580Y006487D02*
X019580Y006487D01*
X019580Y006368D02*
X016580Y006368D01*
X016580Y006250D02*
X019580Y006250D01*
X019580Y006131D02*
X016580Y006131D01*
X016580Y006013D02*
X019580Y006013D01*
X019580Y005894D02*
X016580Y005894D01*
X016580Y005776D02*
X019580Y005776D01*
X019580Y005657D02*
X016580Y005657D01*
X016580Y005539D02*
X019580Y005539D01*
X019580Y005420D02*
X016580Y005420D01*
X016580Y005302D02*
X019580Y005302D01*
X019580Y005183D02*
X016580Y005183D01*
X016580Y005065D02*
X019580Y005065D01*
X019580Y004946D02*
X016580Y004946D01*
X016580Y004828D02*
X019580Y004828D01*
X019580Y004709D02*
X016580Y004709D01*
X016580Y004591D02*
X019580Y004591D01*
X019580Y004472D02*
X016580Y004472D01*
X016580Y004354D02*
X019580Y004354D01*
X019580Y004235D02*
X016580Y004235D01*
X016580Y004117D02*
X019580Y004117D01*
X019580Y003998D02*
X016580Y003998D01*
X016580Y003880D02*
X019580Y003880D01*
X019580Y003761D02*
X016580Y003761D01*
X016580Y003643D02*
X019580Y003643D01*
X019580Y003524D02*
X016580Y003524D01*
X016580Y003406D02*
X019580Y003406D01*
X019580Y003287D02*
X016580Y003287D01*
X016580Y003169D02*
X019580Y003169D01*
X007880Y003180D02*
X006580Y003180D01*
X006580Y004733D01*
X006645Y004733D01*
X006685Y004693D01*
X007735Y004693D01*
X007823Y004780D01*
X007880Y004780D01*
X007880Y003180D01*
X007880Y003287D02*
X006580Y003287D01*
X006580Y003406D02*
X007880Y003406D01*
X007880Y003524D02*
X006580Y003524D01*
X006580Y003643D02*
X007880Y003643D01*
X007880Y003761D02*
X006580Y003761D01*
X006580Y003880D02*
X007880Y003880D01*
X007880Y003998D02*
X006580Y003998D01*
X006580Y004117D02*
X007880Y004117D01*
X007880Y004235D02*
X006580Y004235D01*
X006580Y004354D02*
X007880Y004354D01*
X007880Y004472D02*
X006580Y004472D01*
X006580Y004591D02*
X007880Y004591D01*
X007880Y004709D02*
X007752Y004709D01*
X006668Y004709D02*
X006580Y004709D01*
D26*
X007180Y002580D03*
X015080Y002580D03*
X013080Y009980D03*
X002880Y013880D03*
D27*
X003735Y012935D02*
X005325Y012935D01*
X005380Y012880D01*
X005480Y012980D01*
X007915Y012980D01*
X005380Y012880D02*
X005380Y012341D01*
X003735Y012935D02*
X002680Y011880D01*
X002680Y010282D01*
X002670Y010272D01*
X002670Y008272D01*
X014845Y012980D02*
X015290Y012980D01*
X018190Y010080D01*
X018190Y008288D01*
X018190Y010080D02*
X018190Y010288D01*
M02*
