G75*
%MOIN*%
%OFA0B0*%
%FSLAX24Y24*%
%IPPOS*%
%LPD*%
%AMOC8*
5,1,8,0,0,1.08239X$1,22.5*
%
%ADD10C,0.0316*%
%ADD11R,0.0340X0.0880*%
%ADD12R,0.0560X0.0960*%
%ADD13R,0.1497X0.0946*%
%ADD14R,0.0671X0.0592*%
%ADD15C,0.0992*%
%ADD16OC8,0.0880*%
%ADD17R,0.0950X0.0320*%
%ADD18R,0.0592X0.0671*%
%ADD19OC8,0.0800*%
%ADD20C,0.0800*%
%ADD21R,0.0946X0.0316*%
%ADD22R,0.2442X0.2049*%
%ADD23R,0.0631X0.2049*%
%ADD24C,0.0476*%
D10*
X002680Y001880D03*
X018180Y001880D03*
X018180Y015280D03*
X002680Y015280D03*
D11*
X008430Y006660D03*
X008930Y006660D03*
X009430Y006660D03*
X009930Y006660D03*
X010430Y006660D03*
X010930Y006660D03*
X011430Y006660D03*
X011930Y006660D03*
X012430Y006660D03*
X012930Y006660D03*
X012930Y002700D03*
X012430Y002700D03*
X011930Y002700D03*
X011430Y002700D03*
X010930Y002700D03*
X010430Y002700D03*
X009930Y002700D03*
X009430Y002700D03*
X008930Y002700D03*
X008430Y002700D03*
D12*
X014170Y007800D03*
X015080Y007800D03*
X015990Y007800D03*
D13*
X015080Y005360D03*
D14*
X015080Y004254D03*
X015080Y003506D03*
X013880Y003506D03*
X013880Y004254D03*
D15*
X018190Y004288D03*
X018190Y006288D03*
X018190Y008288D03*
X018190Y010288D03*
X002670Y010272D03*
X002670Y008272D03*
X002670Y006272D03*
X002670Y004272D03*
D16*
X009180Y008080D03*
X010180Y008080D03*
X011180Y008080D03*
X012180Y008080D03*
X012180Y009080D03*
X011180Y009080D03*
X010180Y009080D03*
X009180Y009080D03*
D17*
X007210Y005030D03*
X007210Y004530D03*
X007210Y004030D03*
X007210Y003530D03*
X005150Y003530D03*
X005150Y004030D03*
X005150Y004530D03*
X005150Y005030D03*
D18*
X006106Y008380D03*
X006854Y008380D03*
X014206Y009080D03*
X014954Y009080D03*
D19*
X015180Y010880D03*
D20*
X014180Y010880D03*
D21*
X007204Y007530D03*
X007204Y007030D03*
X007204Y006530D03*
X007204Y006030D03*
X005156Y006030D03*
X005156Y006530D03*
X005156Y007030D03*
X005156Y007530D03*
D22*
X007915Y012980D03*
X014845Y012980D03*
D23*
X005380Y012341D03*
X005380Y015019D03*
D24*
X002880Y013880D03*
X013080Y009980D03*
X015080Y002580D03*
X007180Y002580D03*
M02*
