%
M48
M72
T01C0.0236
T02C0.0320
T03C0.0400
T04C0.0512
%
T01
X2680Y1880
X7180Y2580
X15080Y2580
X18180Y1880
X13080Y9980
X18180Y15280
X2880Y13880
X2680Y15280
T02
X14180Y10880
X15180Y10880
T03
X12180Y9080
X11180Y9080
X10180Y9080
X9180Y9080
X9180Y8080
X10180Y8080
X11180Y8080
X12180Y8080
T04
X18190Y8288
X18190Y6288
X18190Y4288
X18190Y10288
X2670Y10272
X2670Y8272
X2670Y6272
X2670Y4272
M30
