G75*
%MOIN*%
%OFA0B0*%
%FSLAX24Y24*%
%IPPOS*%
%LPD*%
%AMOC8*
5,1,8,0,0,1.08239X$1,22.5*
%
%ADD10C,0.0000*%
%ADD11C,0.0080*%
%ADD12C,0.0020*%
%ADD13C,0.0060*%
%ADD14R,0.0200X0.0050*%
%ADD15C,0.0010*%
%ADD16C,0.0040*%
%ADD17C,0.0050*%
%ADD18C,0.0030*%
D10*
X000680Y000680D02*
X000680Y016550D01*
X020172Y016550D01*
X020172Y000680D01*
X000680Y000680D01*
X002562Y001880D02*
X002564Y001901D01*
X002570Y001921D01*
X002579Y001941D01*
X002591Y001958D01*
X002606Y001972D01*
X002624Y001984D01*
X002644Y001992D01*
X002664Y001997D01*
X002685Y001998D01*
X002706Y001995D01*
X002726Y001989D01*
X002745Y001978D01*
X002762Y001965D01*
X002775Y001949D01*
X002786Y001931D01*
X002794Y001911D01*
X002798Y001891D01*
X002798Y001869D01*
X002794Y001849D01*
X002786Y001829D01*
X002775Y001811D01*
X002762Y001795D01*
X002745Y001782D01*
X002726Y001771D01*
X002706Y001765D01*
X002685Y001762D01*
X002664Y001763D01*
X002644Y001768D01*
X002624Y001776D01*
X002606Y001788D01*
X002591Y001802D01*
X002579Y001819D01*
X002570Y001839D01*
X002564Y001859D01*
X002562Y001880D01*
X018062Y001880D02*
X018064Y001901D01*
X018070Y001921D01*
X018079Y001941D01*
X018091Y001958D01*
X018106Y001972D01*
X018124Y001984D01*
X018144Y001992D01*
X018164Y001997D01*
X018185Y001998D01*
X018206Y001995D01*
X018226Y001989D01*
X018245Y001978D01*
X018262Y001965D01*
X018275Y001949D01*
X018286Y001931D01*
X018294Y001911D01*
X018298Y001891D01*
X018298Y001869D01*
X018294Y001849D01*
X018286Y001829D01*
X018275Y001811D01*
X018262Y001795D01*
X018245Y001782D01*
X018226Y001771D01*
X018206Y001765D01*
X018185Y001762D01*
X018164Y001763D01*
X018144Y001768D01*
X018124Y001776D01*
X018106Y001788D01*
X018091Y001802D01*
X018079Y001819D01*
X018070Y001839D01*
X018064Y001859D01*
X018062Y001880D01*
X018062Y015280D02*
X018064Y015301D01*
X018070Y015321D01*
X018079Y015341D01*
X018091Y015358D01*
X018106Y015372D01*
X018124Y015384D01*
X018144Y015392D01*
X018164Y015397D01*
X018185Y015398D01*
X018206Y015395D01*
X018226Y015389D01*
X018245Y015378D01*
X018262Y015365D01*
X018275Y015349D01*
X018286Y015331D01*
X018294Y015311D01*
X018298Y015291D01*
X018298Y015269D01*
X018294Y015249D01*
X018286Y015229D01*
X018275Y015211D01*
X018262Y015195D01*
X018245Y015182D01*
X018226Y015171D01*
X018206Y015165D01*
X018185Y015162D01*
X018164Y015163D01*
X018144Y015168D01*
X018124Y015176D01*
X018106Y015188D01*
X018091Y015202D01*
X018079Y015219D01*
X018070Y015239D01*
X018064Y015259D01*
X018062Y015280D01*
X002562Y015280D02*
X002564Y015301D01*
X002570Y015321D01*
X002579Y015341D01*
X002591Y015358D01*
X002606Y015372D01*
X002624Y015384D01*
X002644Y015392D01*
X002664Y015397D01*
X002685Y015398D01*
X002706Y015395D01*
X002726Y015389D01*
X002745Y015378D01*
X002762Y015365D01*
X002775Y015349D01*
X002786Y015331D01*
X002794Y015311D01*
X002798Y015291D01*
X002798Y015269D01*
X002794Y015249D01*
X002786Y015229D01*
X002775Y015211D01*
X002762Y015195D01*
X002745Y015182D01*
X002726Y015171D01*
X002706Y015165D01*
X002685Y015162D01*
X002664Y015163D01*
X002644Y015168D01*
X002624Y015176D01*
X002606Y015188D01*
X002591Y015202D01*
X002579Y015219D01*
X002570Y015239D01*
X002564Y015259D01*
X002562Y015280D01*
D11*
X001876Y011272D02*
X001686Y011272D01*
X001086Y011272D01*
X001086Y007272D01*
X001686Y007272D01*
X001876Y007272D01*
X003450Y007272D01*
X003644Y007272D01*
X003644Y011272D01*
X003911Y011272D01*
X004156Y011272D01*
X004274Y011272D01*
X004274Y007272D01*
X004156Y007272D01*
X004156Y011272D01*
X003911Y011272D02*
X003911Y007272D01*
X003990Y007272D01*
X004156Y007272D01*
X004274Y007272D01*
X004274Y003272D01*
X004156Y003272D01*
X004156Y007272D01*
X003911Y007272D01*
X003827Y007272D01*
X003644Y007272D01*
X003911Y007272D01*
X003911Y003272D01*
X003990Y003272D01*
X004156Y003272D01*
X004049Y003151D02*
X003990Y003221D01*
X003990Y003272D01*
X003911Y003272D02*
X003827Y003272D01*
X003644Y003272D01*
X003644Y007272D01*
X003450Y007272D01*
X001876Y007272D01*
X001686Y007272D01*
X001686Y011272D01*
X001876Y011272D02*
X003450Y011272D01*
X003644Y011272D01*
X001916Y010272D02*
X001918Y010326D01*
X001924Y010381D01*
X001934Y010434D01*
X001947Y010487D01*
X001965Y010538D01*
X001986Y010589D01*
X002010Y010637D01*
X002038Y010684D01*
X002070Y010728D01*
X002104Y010770D01*
X002142Y010810D01*
X002182Y010847D01*
X002225Y010880D01*
X002270Y010911D01*
X002317Y010938D01*
X002366Y010962D01*
X002416Y010982D01*
X002468Y010999D01*
X002521Y011011D01*
X002575Y011020D01*
X002629Y011025D01*
X002684Y011026D01*
X002738Y011023D01*
X002792Y011016D01*
X002845Y011005D01*
X002898Y010991D01*
X002949Y010972D01*
X002999Y010950D01*
X003047Y010925D01*
X003093Y010896D01*
X003137Y010864D01*
X003179Y010829D01*
X003217Y010791D01*
X003253Y010750D01*
X003286Y010706D01*
X003316Y010661D01*
X003342Y010613D01*
X003365Y010564D01*
X003385Y010513D01*
X003400Y010461D01*
X003412Y010407D01*
X003420Y010354D01*
X003424Y010299D01*
X003424Y010245D01*
X003420Y010190D01*
X003412Y010137D01*
X003400Y010083D01*
X003385Y010031D01*
X003365Y009980D01*
X003342Y009931D01*
X003316Y009883D01*
X003286Y009838D01*
X003253Y009794D01*
X003217Y009753D01*
X003179Y009715D01*
X003137Y009680D01*
X003093Y009648D01*
X003047Y009619D01*
X002999Y009594D01*
X002949Y009572D01*
X002898Y009553D01*
X002845Y009539D01*
X002792Y009528D01*
X002738Y009521D01*
X002684Y009518D01*
X002629Y009519D01*
X002575Y009524D01*
X002521Y009533D01*
X002468Y009545D01*
X002416Y009562D01*
X002366Y009582D01*
X002317Y009606D01*
X002270Y009633D01*
X002225Y009664D01*
X002182Y009697D01*
X002142Y009734D01*
X002104Y009774D01*
X002070Y009816D01*
X002038Y009860D01*
X002010Y009907D01*
X001986Y009955D01*
X001965Y010006D01*
X001947Y010057D01*
X001934Y010110D01*
X001924Y010163D01*
X001918Y010218D01*
X001916Y010272D01*
X001916Y008272D02*
X001918Y008326D01*
X001924Y008381D01*
X001934Y008434D01*
X001947Y008487D01*
X001965Y008538D01*
X001986Y008589D01*
X002010Y008637D01*
X002038Y008684D01*
X002070Y008728D01*
X002104Y008770D01*
X002142Y008810D01*
X002182Y008847D01*
X002225Y008880D01*
X002270Y008911D01*
X002317Y008938D01*
X002366Y008962D01*
X002416Y008982D01*
X002468Y008999D01*
X002521Y009011D01*
X002575Y009020D01*
X002629Y009025D01*
X002684Y009026D01*
X002738Y009023D01*
X002792Y009016D01*
X002845Y009005D01*
X002898Y008991D01*
X002949Y008972D01*
X002999Y008950D01*
X003047Y008925D01*
X003093Y008896D01*
X003137Y008864D01*
X003179Y008829D01*
X003217Y008791D01*
X003253Y008750D01*
X003286Y008706D01*
X003316Y008661D01*
X003342Y008613D01*
X003365Y008564D01*
X003385Y008513D01*
X003400Y008461D01*
X003412Y008407D01*
X003420Y008354D01*
X003424Y008299D01*
X003424Y008245D01*
X003420Y008190D01*
X003412Y008137D01*
X003400Y008083D01*
X003385Y008031D01*
X003365Y007980D01*
X003342Y007931D01*
X003316Y007883D01*
X003286Y007838D01*
X003253Y007794D01*
X003217Y007753D01*
X003179Y007715D01*
X003137Y007680D01*
X003093Y007648D01*
X003047Y007619D01*
X002999Y007594D01*
X002949Y007572D01*
X002898Y007553D01*
X002845Y007539D01*
X002792Y007528D01*
X002738Y007521D01*
X002684Y007518D01*
X002629Y007519D01*
X002575Y007524D01*
X002521Y007533D01*
X002468Y007545D01*
X002416Y007562D01*
X002366Y007582D01*
X002317Y007606D01*
X002270Y007633D01*
X002225Y007664D01*
X002182Y007697D01*
X002142Y007734D01*
X002104Y007774D01*
X002070Y007816D01*
X002038Y007860D01*
X002010Y007907D01*
X001986Y007955D01*
X001965Y008006D01*
X001947Y008057D01*
X001934Y008110D01*
X001924Y008163D01*
X001918Y008218D01*
X001916Y008272D01*
X001686Y007272D02*
X001086Y007272D01*
X001086Y003272D01*
X001686Y003272D01*
X001876Y003272D01*
X003450Y003272D01*
X003644Y003272D01*
X003768Y003151D02*
X003768Y003047D01*
X004049Y003047D01*
X004049Y003151D01*
X003827Y003221D02*
X003768Y003151D01*
X003827Y003221D02*
X003827Y003272D01*
X001916Y004272D02*
X001918Y004326D01*
X001924Y004381D01*
X001934Y004434D01*
X001947Y004487D01*
X001965Y004538D01*
X001986Y004589D01*
X002010Y004637D01*
X002038Y004684D01*
X002070Y004728D01*
X002104Y004770D01*
X002142Y004810D01*
X002182Y004847D01*
X002225Y004880D01*
X002270Y004911D01*
X002317Y004938D01*
X002366Y004962D01*
X002416Y004982D01*
X002468Y004999D01*
X002521Y005011D01*
X002575Y005020D01*
X002629Y005025D01*
X002684Y005026D01*
X002738Y005023D01*
X002792Y005016D01*
X002845Y005005D01*
X002898Y004991D01*
X002949Y004972D01*
X002999Y004950D01*
X003047Y004925D01*
X003093Y004896D01*
X003137Y004864D01*
X003179Y004829D01*
X003217Y004791D01*
X003253Y004750D01*
X003286Y004706D01*
X003316Y004661D01*
X003342Y004613D01*
X003365Y004564D01*
X003385Y004513D01*
X003400Y004461D01*
X003412Y004407D01*
X003420Y004354D01*
X003424Y004299D01*
X003424Y004245D01*
X003420Y004190D01*
X003412Y004137D01*
X003400Y004083D01*
X003385Y004031D01*
X003365Y003980D01*
X003342Y003931D01*
X003316Y003883D01*
X003286Y003838D01*
X003253Y003794D01*
X003217Y003753D01*
X003179Y003715D01*
X003137Y003680D01*
X003093Y003648D01*
X003047Y003619D01*
X002999Y003594D01*
X002949Y003572D01*
X002898Y003553D01*
X002845Y003539D01*
X002792Y003528D01*
X002738Y003521D01*
X002684Y003518D01*
X002629Y003519D01*
X002575Y003524D01*
X002521Y003533D01*
X002468Y003545D01*
X002416Y003562D01*
X002366Y003582D01*
X002317Y003606D01*
X002270Y003633D01*
X002225Y003664D01*
X002182Y003697D01*
X002142Y003734D01*
X002104Y003774D01*
X002070Y003816D01*
X002038Y003860D01*
X002010Y003907D01*
X001986Y003955D01*
X001965Y004006D01*
X001947Y004057D01*
X001934Y004110D01*
X001924Y004163D01*
X001918Y004218D01*
X001916Y004272D01*
X001686Y003272D02*
X001686Y007272D01*
X001916Y006272D02*
X001918Y006326D01*
X001924Y006381D01*
X001934Y006434D01*
X001947Y006487D01*
X001965Y006538D01*
X001986Y006589D01*
X002010Y006637D01*
X002038Y006684D01*
X002070Y006728D01*
X002104Y006770D01*
X002142Y006810D01*
X002182Y006847D01*
X002225Y006880D01*
X002270Y006911D01*
X002317Y006938D01*
X002366Y006962D01*
X002416Y006982D01*
X002468Y006999D01*
X002521Y007011D01*
X002575Y007020D01*
X002629Y007025D01*
X002684Y007026D01*
X002738Y007023D01*
X002792Y007016D01*
X002845Y007005D01*
X002898Y006991D01*
X002949Y006972D01*
X002999Y006950D01*
X003047Y006925D01*
X003093Y006896D01*
X003137Y006864D01*
X003179Y006829D01*
X003217Y006791D01*
X003253Y006750D01*
X003286Y006706D01*
X003316Y006661D01*
X003342Y006613D01*
X003365Y006564D01*
X003385Y006513D01*
X003400Y006461D01*
X003412Y006407D01*
X003420Y006354D01*
X003424Y006299D01*
X003424Y006245D01*
X003420Y006190D01*
X003412Y006137D01*
X003400Y006083D01*
X003385Y006031D01*
X003365Y005980D01*
X003342Y005931D01*
X003316Y005883D01*
X003286Y005838D01*
X003253Y005794D01*
X003217Y005753D01*
X003179Y005715D01*
X003137Y005680D01*
X003093Y005648D01*
X003047Y005619D01*
X002999Y005594D01*
X002949Y005572D01*
X002898Y005553D01*
X002845Y005539D01*
X002792Y005528D01*
X002738Y005521D01*
X002684Y005518D01*
X002629Y005519D01*
X002575Y005524D01*
X002521Y005533D01*
X002468Y005545D01*
X002416Y005562D01*
X002366Y005582D01*
X002317Y005606D01*
X002270Y005633D01*
X002225Y005664D01*
X002182Y005697D01*
X002142Y005734D01*
X002104Y005774D01*
X002070Y005816D01*
X002038Y005860D01*
X002010Y005907D01*
X001986Y005955D01*
X001965Y006006D01*
X001947Y006057D01*
X001934Y006110D01*
X001924Y006163D01*
X001918Y006218D01*
X001916Y006272D01*
X003768Y007047D02*
X004049Y007047D01*
X004049Y007151D01*
X003990Y007221D01*
X003990Y007272D01*
X003827Y007272D02*
X003827Y007221D01*
X003768Y007151D01*
X003768Y007047D01*
X006513Y003570D02*
X006515Y003585D01*
X006521Y003598D01*
X006530Y003610D01*
X006541Y003619D01*
X006555Y003625D01*
X006570Y003627D01*
X006585Y003625D01*
X006598Y003619D01*
X006610Y003610D01*
X006619Y003599D01*
X006625Y003585D01*
X006627Y003570D01*
X006625Y003555D01*
X006619Y003542D01*
X006610Y003530D01*
X006599Y003521D01*
X006585Y003515D01*
X006570Y003513D01*
X006555Y003515D01*
X006542Y003521D01*
X006530Y003530D01*
X006521Y003541D01*
X006515Y003555D01*
X006513Y003570D01*
X008130Y003360D02*
X008130Y006000D01*
X008132Y006023D01*
X008137Y006046D01*
X008146Y006068D01*
X008159Y006088D01*
X008174Y006106D01*
X008192Y006121D01*
X008212Y006134D01*
X008234Y006143D01*
X008257Y006148D01*
X008280Y006150D01*
X013080Y006150D01*
X013103Y006148D01*
X013126Y006143D01*
X013148Y006134D01*
X013168Y006121D01*
X013186Y006106D01*
X013201Y006088D01*
X013214Y006068D01*
X013223Y006046D01*
X013228Y006023D01*
X013230Y006000D01*
X013230Y005180D01*
X013230Y004180D01*
X013230Y003360D01*
X013228Y003337D01*
X013223Y003314D01*
X013214Y003292D01*
X013201Y003272D01*
X013186Y003254D01*
X013168Y003239D01*
X013148Y003226D01*
X013126Y003217D01*
X013103Y003212D01*
X013080Y003210D01*
X008280Y003210D01*
X008257Y003212D01*
X008234Y003217D01*
X008212Y003226D01*
X008192Y003239D01*
X008174Y003254D01*
X008159Y003272D01*
X008146Y003292D01*
X008137Y003314D01*
X008132Y003337D01*
X008130Y003360D01*
X013230Y004180D02*
X013186Y004182D01*
X013143Y004188D01*
X013101Y004197D01*
X013059Y004210D01*
X013019Y004227D01*
X012980Y004247D01*
X012943Y004270D01*
X012909Y004297D01*
X012876Y004326D01*
X012847Y004359D01*
X012820Y004393D01*
X012797Y004430D01*
X012777Y004469D01*
X012760Y004509D01*
X012747Y004551D01*
X012738Y004593D01*
X012732Y004636D01*
X012730Y004680D01*
X012732Y004724D01*
X012738Y004767D01*
X012747Y004809D01*
X012760Y004851D01*
X012777Y004891D01*
X012797Y004930D01*
X012820Y004967D01*
X012847Y005001D01*
X012876Y005034D01*
X012909Y005063D01*
X012943Y005090D01*
X012980Y005113D01*
X013019Y005133D01*
X013059Y005150D01*
X013101Y005163D01*
X013143Y005172D01*
X013186Y005178D01*
X013230Y005180D01*
X013790Y005930D02*
X016370Y005930D01*
X016370Y007230D01*
X013790Y007230D01*
X013790Y005930D01*
X016586Y007288D02*
X016704Y007288D01*
X016704Y011288D01*
X016586Y011288D01*
X016586Y007288D01*
X016704Y007288D01*
X016949Y007288D01*
X017216Y007288D01*
X017410Y007288D01*
X018984Y007288D01*
X019174Y007288D01*
X019774Y007288D01*
X019774Y011288D01*
X019174Y011288D01*
X018984Y011288D01*
X017410Y011288D01*
X017216Y011288D01*
X017216Y007288D01*
X017216Y003288D01*
X016949Y003288D01*
X016704Y003288D01*
X016586Y003288D01*
X016586Y007288D01*
X016704Y007288D02*
X016704Y003288D01*
X016949Y003288D02*
X016949Y007288D01*
X016949Y011288D01*
X016870Y011288D01*
X016704Y011288D01*
X016811Y011409D02*
X016870Y011339D01*
X016870Y011288D01*
X016949Y011288D02*
X017033Y011288D01*
X017216Y011288D01*
X017092Y011409D02*
X017092Y011513D01*
X016811Y011513D01*
X016811Y011409D01*
X017033Y011339D02*
X017092Y011409D01*
X017033Y011339D02*
X017033Y011288D01*
X017436Y010288D02*
X017438Y010342D01*
X017444Y010397D01*
X017454Y010450D01*
X017467Y010503D01*
X017485Y010554D01*
X017506Y010605D01*
X017530Y010653D01*
X017558Y010700D01*
X017590Y010744D01*
X017624Y010786D01*
X017662Y010826D01*
X017702Y010863D01*
X017745Y010896D01*
X017790Y010927D01*
X017837Y010954D01*
X017886Y010978D01*
X017936Y010998D01*
X017988Y011015D01*
X018041Y011027D01*
X018095Y011036D01*
X018149Y011041D01*
X018204Y011042D01*
X018258Y011039D01*
X018312Y011032D01*
X018365Y011021D01*
X018418Y011007D01*
X018469Y010988D01*
X018519Y010966D01*
X018567Y010941D01*
X018613Y010912D01*
X018657Y010880D01*
X018699Y010845D01*
X018737Y010807D01*
X018773Y010766D01*
X018806Y010722D01*
X018836Y010677D01*
X018862Y010629D01*
X018885Y010580D01*
X018905Y010529D01*
X018920Y010477D01*
X018932Y010423D01*
X018940Y010370D01*
X018944Y010315D01*
X018944Y010261D01*
X018940Y010206D01*
X018932Y010153D01*
X018920Y010099D01*
X018905Y010047D01*
X018885Y009996D01*
X018862Y009947D01*
X018836Y009899D01*
X018806Y009854D01*
X018773Y009810D01*
X018737Y009769D01*
X018699Y009731D01*
X018657Y009696D01*
X018613Y009664D01*
X018567Y009635D01*
X018519Y009610D01*
X018469Y009588D01*
X018418Y009569D01*
X018365Y009555D01*
X018312Y009544D01*
X018258Y009537D01*
X018204Y009534D01*
X018149Y009535D01*
X018095Y009540D01*
X018041Y009549D01*
X017988Y009561D01*
X017936Y009578D01*
X017886Y009598D01*
X017837Y009622D01*
X017790Y009649D01*
X017745Y009680D01*
X017702Y009713D01*
X017662Y009750D01*
X017624Y009790D01*
X017590Y009832D01*
X017558Y009876D01*
X017530Y009923D01*
X017506Y009971D01*
X017485Y010022D01*
X017467Y010073D01*
X017454Y010126D01*
X017444Y010179D01*
X017438Y010234D01*
X017436Y010288D01*
X019174Y011288D02*
X019174Y007288D01*
X019774Y007288D01*
X019774Y003288D01*
X019174Y003288D01*
X018984Y003288D01*
X017410Y003288D01*
X017216Y003288D01*
X017436Y004288D02*
X017438Y004342D01*
X017444Y004397D01*
X017454Y004450D01*
X017467Y004503D01*
X017485Y004554D01*
X017506Y004605D01*
X017530Y004653D01*
X017558Y004700D01*
X017590Y004744D01*
X017624Y004786D01*
X017662Y004826D01*
X017702Y004863D01*
X017745Y004896D01*
X017790Y004927D01*
X017837Y004954D01*
X017886Y004978D01*
X017936Y004998D01*
X017988Y005015D01*
X018041Y005027D01*
X018095Y005036D01*
X018149Y005041D01*
X018204Y005042D01*
X018258Y005039D01*
X018312Y005032D01*
X018365Y005021D01*
X018418Y005007D01*
X018469Y004988D01*
X018519Y004966D01*
X018567Y004941D01*
X018613Y004912D01*
X018657Y004880D01*
X018699Y004845D01*
X018737Y004807D01*
X018773Y004766D01*
X018806Y004722D01*
X018836Y004677D01*
X018862Y004629D01*
X018885Y004580D01*
X018905Y004529D01*
X018920Y004477D01*
X018932Y004423D01*
X018940Y004370D01*
X018944Y004315D01*
X018944Y004261D01*
X018940Y004206D01*
X018932Y004153D01*
X018920Y004099D01*
X018905Y004047D01*
X018885Y003996D01*
X018862Y003947D01*
X018836Y003899D01*
X018806Y003854D01*
X018773Y003810D01*
X018737Y003769D01*
X018699Y003731D01*
X018657Y003696D01*
X018613Y003664D01*
X018567Y003635D01*
X018519Y003610D01*
X018469Y003588D01*
X018418Y003569D01*
X018365Y003555D01*
X018312Y003544D01*
X018258Y003537D01*
X018204Y003534D01*
X018149Y003535D01*
X018095Y003540D01*
X018041Y003549D01*
X017988Y003561D01*
X017936Y003578D01*
X017886Y003598D01*
X017837Y003622D01*
X017790Y003649D01*
X017745Y003680D01*
X017702Y003713D01*
X017662Y003750D01*
X017624Y003790D01*
X017590Y003832D01*
X017558Y003876D01*
X017530Y003923D01*
X017506Y003971D01*
X017485Y004022D01*
X017467Y004073D01*
X017454Y004126D01*
X017444Y004179D01*
X017438Y004234D01*
X017436Y004288D01*
X019174Y003288D02*
X019174Y007288D01*
X018984Y007288D01*
X017410Y007288D01*
X017216Y007288D01*
X017033Y007288D01*
X016949Y007288D01*
X016870Y007288D01*
X016704Y007288D01*
X016811Y007409D02*
X016870Y007339D01*
X016870Y007288D01*
X016811Y007409D02*
X016811Y007513D01*
X017092Y007513D01*
X017092Y007409D01*
X017033Y007339D01*
X017033Y007288D01*
X017436Y006288D02*
X017438Y006342D01*
X017444Y006397D01*
X017454Y006450D01*
X017467Y006503D01*
X017485Y006554D01*
X017506Y006605D01*
X017530Y006653D01*
X017558Y006700D01*
X017590Y006744D01*
X017624Y006786D01*
X017662Y006826D01*
X017702Y006863D01*
X017745Y006896D01*
X017790Y006927D01*
X017837Y006954D01*
X017886Y006978D01*
X017936Y006998D01*
X017988Y007015D01*
X018041Y007027D01*
X018095Y007036D01*
X018149Y007041D01*
X018204Y007042D01*
X018258Y007039D01*
X018312Y007032D01*
X018365Y007021D01*
X018418Y007007D01*
X018469Y006988D01*
X018519Y006966D01*
X018567Y006941D01*
X018613Y006912D01*
X018657Y006880D01*
X018699Y006845D01*
X018737Y006807D01*
X018773Y006766D01*
X018806Y006722D01*
X018836Y006677D01*
X018862Y006629D01*
X018885Y006580D01*
X018905Y006529D01*
X018920Y006477D01*
X018932Y006423D01*
X018940Y006370D01*
X018944Y006315D01*
X018944Y006261D01*
X018940Y006206D01*
X018932Y006153D01*
X018920Y006099D01*
X018905Y006047D01*
X018885Y005996D01*
X018862Y005947D01*
X018836Y005899D01*
X018806Y005854D01*
X018773Y005810D01*
X018737Y005769D01*
X018699Y005731D01*
X018657Y005696D01*
X018613Y005664D01*
X018567Y005635D01*
X018519Y005610D01*
X018469Y005588D01*
X018418Y005569D01*
X018365Y005555D01*
X018312Y005544D01*
X018258Y005537D01*
X018204Y005534D01*
X018149Y005535D01*
X018095Y005540D01*
X018041Y005549D01*
X017988Y005561D01*
X017936Y005578D01*
X017886Y005598D01*
X017837Y005622D01*
X017790Y005649D01*
X017745Y005680D01*
X017702Y005713D01*
X017662Y005750D01*
X017624Y005790D01*
X017590Y005832D01*
X017558Y005876D01*
X017530Y005923D01*
X017506Y005971D01*
X017485Y006022D01*
X017467Y006073D01*
X017454Y006126D01*
X017444Y006179D01*
X017438Y006234D01*
X017436Y006288D01*
X017436Y008288D02*
X017438Y008342D01*
X017444Y008397D01*
X017454Y008450D01*
X017467Y008503D01*
X017485Y008554D01*
X017506Y008605D01*
X017530Y008653D01*
X017558Y008700D01*
X017590Y008744D01*
X017624Y008786D01*
X017662Y008826D01*
X017702Y008863D01*
X017745Y008896D01*
X017790Y008927D01*
X017837Y008954D01*
X017886Y008978D01*
X017936Y008998D01*
X017988Y009015D01*
X018041Y009027D01*
X018095Y009036D01*
X018149Y009041D01*
X018204Y009042D01*
X018258Y009039D01*
X018312Y009032D01*
X018365Y009021D01*
X018418Y009007D01*
X018469Y008988D01*
X018519Y008966D01*
X018567Y008941D01*
X018613Y008912D01*
X018657Y008880D01*
X018699Y008845D01*
X018737Y008807D01*
X018773Y008766D01*
X018806Y008722D01*
X018836Y008677D01*
X018862Y008629D01*
X018885Y008580D01*
X018905Y008529D01*
X018920Y008477D01*
X018932Y008423D01*
X018940Y008370D01*
X018944Y008315D01*
X018944Y008261D01*
X018940Y008206D01*
X018932Y008153D01*
X018920Y008099D01*
X018905Y008047D01*
X018885Y007996D01*
X018862Y007947D01*
X018836Y007899D01*
X018806Y007854D01*
X018773Y007810D01*
X018737Y007769D01*
X018699Y007731D01*
X018657Y007696D01*
X018613Y007664D01*
X018567Y007635D01*
X018519Y007610D01*
X018469Y007588D01*
X018418Y007569D01*
X018365Y007555D01*
X018312Y007544D01*
X018258Y007537D01*
X018204Y007534D01*
X018149Y007535D01*
X018095Y007540D01*
X018041Y007549D01*
X017988Y007561D01*
X017936Y007578D01*
X017886Y007598D01*
X017837Y007622D01*
X017790Y007649D01*
X017745Y007680D01*
X017702Y007713D01*
X017662Y007750D01*
X017624Y007790D01*
X017590Y007832D01*
X017558Y007876D01*
X017530Y007923D01*
X017506Y007971D01*
X017485Y008022D01*
X017467Y008073D01*
X017454Y008126D01*
X017444Y008179D01*
X017438Y008234D01*
X017436Y008288D01*
D12*
X013230Y006010D02*
X008130Y006010D01*
D13*
X006890Y005210D02*
X005470Y005210D01*
X005470Y003350D02*
X006890Y003350D01*
X011626Y004333D02*
X011669Y004290D01*
X011756Y004290D01*
X011800Y004333D01*
X011800Y004550D01*
X011921Y004507D02*
X011964Y004550D01*
X012051Y004550D01*
X012094Y004507D01*
X012051Y004420D02*
X011964Y004420D01*
X011921Y004463D01*
X011921Y004507D01*
X012007Y004594D02*
X012007Y004247D01*
X011964Y004290D02*
X012051Y004290D01*
X012094Y004333D01*
X012094Y004377D01*
X012051Y004420D01*
X011921Y004333D02*
X011964Y004290D01*
X012215Y004290D02*
X012389Y004290D01*
X012302Y004290D02*
X012302Y004550D01*
X012215Y004463D01*
X011626Y004550D02*
X011626Y004333D01*
D14*
X011430Y003185D03*
X010930Y003185D03*
X010430Y003185D03*
X009930Y003185D03*
X009430Y003185D03*
X008930Y003185D03*
X008430Y003185D03*
X008430Y006175D03*
X008930Y006175D03*
X009430Y006175D03*
X009930Y006175D03*
X010430Y006175D03*
X010930Y006175D03*
X011430Y006175D03*
X011930Y006175D03*
X012430Y006175D03*
X012930Y006175D03*
X012930Y003185D03*
X012430Y003185D03*
X011930Y003185D03*
D15*
X015017Y004650D02*
X015067Y004650D01*
X015042Y004650D02*
X015042Y004800D01*
X015017Y004800D02*
X015067Y004800D01*
X015115Y004775D02*
X015115Y004675D01*
X015140Y004650D01*
X015190Y004650D01*
X015215Y004675D01*
X015263Y004650D02*
X015363Y004650D01*
X015313Y004650D02*
X015313Y004800D01*
X015263Y004750D01*
X015215Y004775D02*
X015190Y004800D01*
X015140Y004800D01*
X015115Y004775D01*
X006175Y004032D02*
X006175Y003932D01*
X006175Y003885D02*
X006125Y003835D01*
X006175Y003860D02*
X006175Y003810D01*
X006150Y003785D01*
X006050Y003785D01*
X006025Y003810D01*
X006025Y003860D01*
X006050Y003885D01*
X006150Y003885D01*
X006175Y003860D01*
X006175Y003982D02*
X006025Y003982D01*
X006075Y003932D01*
D16*
X006183Y005173D02*
X006183Y005787D01*
X006106Y005710D02*
X006259Y005710D01*
X006336Y005634D01*
X006490Y005634D02*
X006566Y005710D01*
X006720Y005710D01*
X006797Y005634D01*
X006797Y005557D01*
X006490Y005250D01*
X006797Y005250D01*
X006336Y005327D02*
X006336Y005403D01*
X006259Y005480D01*
X006106Y005480D01*
X006029Y005557D01*
X006029Y005634D01*
X006106Y005710D01*
X005876Y005710D02*
X005876Y005327D01*
X005799Y005250D01*
X005646Y005250D01*
X005569Y005327D01*
X005569Y005710D01*
X006029Y005327D02*
X006106Y005250D01*
X006259Y005250D01*
X006336Y005327D01*
X006230Y008900D02*
X006307Y008977D01*
X006230Y008900D02*
X006077Y008900D01*
X006000Y008977D01*
X006000Y009284D01*
X006077Y009360D01*
X006230Y009360D01*
X006307Y009284D01*
X006460Y009130D02*
X006691Y009130D01*
X006767Y009053D01*
X006767Y008977D01*
X006691Y008900D01*
X006537Y008900D01*
X006460Y008977D01*
X006460Y009130D01*
X006614Y009284D01*
X006767Y009360D01*
X005990Y012400D02*
X005754Y012400D01*
X005990Y012400D02*
X006660Y013070D01*
X006660Y014960D01*
X005754Y014960D01*
X005006Y014960D02*
X004100Y014960D01*
X004100Y013070D01*
X004770Y012400D01*
X005006Y012400D01*
X005754Y012519D02*
X005818Y012541D01*
X005881Y012568D01*
X005943Y012598D01*
X006002Y012631D01*
X006060Y012667D01*
X006116Y012707D01*
X006169Y012750D01*
X006220Y012795D01*
X006268Y012843D01*
X006313Y012894D01*
X006356Y012948D01*
X006395Y013004D01*
X006432Y013061D01*
X006465Y013121D01*
X006494Y013183D01*
X006520Y013246D01*
X006543Y013310D01*
X006562Y013376D01*
X006577Y013443D01*
X006588Y013510D01*
X006596Y013578D01*
X006600Y013646D01*
X006600Y013714D01*
X006596Y013782D01*
X006588Y013850D01*
X006577Y013917D01*
X006562Y013984D01*
X006543Y014050D01*
X006520Y014114D01*
X006494Y014177D01*
X006465Y014239D01*
X006432Y014299D01*
X006395Y014356D01*
X006356Y014412D01*
X006313Y014466D01*
X006268Y014517D01*
X006220Y014565D01*
X006169Y014610D01*
X006116Y014653D01*
X006060Y014693D01*
X006002Y014729D01*
X005943Y014762D01*
X005881Y014792D01*
X005818Y014819D01*
X005754Y014841D01*
X005006Y014841D02*
X004942Y014819D01*
X004879Y014792D01*
X004817Y014762D01*
X004758Y014729D01*
X004700Y014693D01*
X004644Y014653D01*
X004591Y014610D01*
X004540Y014565D01*
X004492Y014517D01*
X004447Y014466D01*
X004404Y014412D01*
X004365Y014356D01*
X004328Y014299D01*
X004295Y014239D01*
X004266Y014177D01*
X004240Y014114D01*
X004217Y014050D01*
X004198Y013984D01*
X004183Y013917D01*
X004172Y013850D01*
X004164Y013782D01*
X004160Y013714D01*
X004160Y013646D01*
X004164Y013578D01*
X004172Y013510D01*
X004183Y013443D01*
X004198Y013376D01*
X004217Y013310D01*
X004240Y013246D01*
X004266Y013183D01*
X004295Y013121D01*
X004328Y013061D01*
X004365Y013004D01*
X004404Y012948D01*
X004447Y012894D01*
X004492Y012843D01*
X004540Y012795D01*
X004591Y012750D01*
X004644Y012707D01*
X004700Y012667D01*
X004758Y012631D01*
X004817Y012598D01*
X004879Y012568D01*
X004942Y012541D01*
X005006Y012519D01*
X000680Y008197D02*
X000680Y007890D01*
X000450Y008120D01*
X000910Y008120D01*
X000910Y007736D02*
X000450Y007429D01*
X000450Y007736D02*
X000910Y007429D01*
X000833Y004197D02*
X000910Y004120D01*
X000910Y003967D01*
X000833Y003890D01*
X000910Y003736D02*
X000450Y003429D01*
X000450Y003736D02*
X000910Y003429D01*
X000526Y003890D02*
X000450Y003967D01*
X000450Y004120D01*
X000526Y004197D01*
X000603Y004197D01*
X000680Y004120D01*
X000757Y004197D01*
X000833Y004197D01*
X000680Y004120D02*
X000680Y004043D01*
X014100Y009677D02*
X014177Y009600D01*
X014330Y009600D01*
X014407Y009677D01*
X014560Y009600D02*
X014867Y009907D01*
X014867Y009984D01*
X014791Y010060D01*
X014637Y010060D01*
X014560Y009984D01*
X014407Y009984D02*
X014330Y010060D01*
X014177Y010060D01*
X014100Y009984D01*
X014100Y009677D01*
X014560Y009600D02*
X014867Y009600D01*
X019950Y010250D02*
X020410Y010557D01*
X020410Y010710D02*
X020103Y011017D01*
X020026Y011017D01*
X019950Y010940D01*
X019950Y010787D01*
X020026Y010710D01*
X019950Y010557D02*
X020410Y010250D01*
X020410Y010710D02*
X020410Y011017D01*
X020410Y007017D02*
X020410Y006710D01*
X020410Y006557D02*
X019950Y006250D01*
X019950Y006557D02*
X020410Y006250D01*
X020103Y006710D02*
X019950Y006864D01*
X020410Y006864D01*
X016060Y004247D02*
X016060Y003940D01*
X016060Y004093D02*
X015600Y004093D01*
X015753Y003940D01*
X015676Y003786D02*
X015600Y003709D01*
X015600Y003556D01*
X015676Y003479D01*
X015983Y003479D01*
X016060Y003556D01*
X016060Y003709D01*
X015983Y003786D01*
X014860Y003709D02*
X014860Y003556D01*
X014783Y003479D01*
X014476Y003479D01*
X014400Y003556D01*
X014400Y003709D01*
X014476Y003786D01*
X014476Y003940D02*
X014400Y004016D01*
X014400Y004170D01*
X014476Y004247D01*
X014553Y004247D01*
X014630Y004170D01*
X014707Y004247D01*
X014783Y004247D01*
X014860Y004170D01*
X014860Y004016D01*
X014783Y003940D01*
X014783Y003786D02*
X014860Y003709D01*
X014630Y004093D02*
X014630Y004170D01*
D17*
X013506Y010854D02*
X015041Y012389D01*
X015041Y013571D01*
X013506Y015106D01*
X008388Y012980D02*
X008390Y013089D01*
X008396Y013198D01*
X008406Y013307D01*
X008420Y013416D01*
X008438Y013523D01*
X008460Y013631D01*
X008485Y013737D01*
X008515Y013842D01*
X008548Y013946D01*
X008585Y014049D01*
X008626Y014150D01*
X008671Y014250D01*
X008719Y014348D01*
X008771Y014444D01*
X008826Y014539D01*
X008885Y014631D01*
X008947Y014721D01*
X009012Y014809D01*
X009080Y014894D01*
X009152Y014977D01*
X009226Y015057D01*
X009303Y015134D01*
X009383Y015208D01*
X009466Y015280D01*
X009551Y015348D01*
X009639Y015413D01*
X009729Y015475D01*
X009821Y015534D01*
X009916Y015589D01*
X010012Y015641D01*
X010110Y015689D01*
X010210Y015734D01*
X010311Y015775D01*
X010414Y015812D01*
X010518Y015845D01*
X010623Y015875D01*
X010729Y015900D01*
X010837Y015922D01*
X010944Y015940D01*
X011053Y015954D01*
X011162Y015964D01*
X011271Y015970D01*
X011380Y015972D01*
X011489Y015970D01*
X011598Y015964D01*
X011707Y015954D01*
X011816Y015940D01*
X011923Y015922D01*
X012031Y015900D01*
X012137Y015875D01*
X012242Y015845D01*
X012346Y015812D01*
X012449Y015775D01*
X012550Y015734D01*
X012650Y015689D01*
X012748Y015641D01*
X012844Y015589D01*
X012939Y015534D01*
X013031Y015475D01*
X013121Y015413D01*
X013209Y015348D01*
X013294Y015280D01*
X013377Y015208D01*
X013457Y015134D01*
X013534Y015057D01*
X013608Y014977D01*
X013680Y014894D01*
X013748Y014809D01*
X013813Y014721D01*
X013875Y014631D01*
X013934Y014539D01*
X013989Y014444D01*
X014041Y014348D01*
X014089Y014250D01*
X014134Y014150D01*
X014175Y014049D01*
X014212Y013946D01*
X014245Y013842D01*
X014275Y013737D01*
X014300Y013631D01*
X014322Y013523D01*
X014340Y013416D01*
X014354Y013307D01*
X014364Y013198D01*
X014370Y013089D01*
X014372Y012980D01*
X014370Y012871D01*
X014364Y012762D01*
X014354Y012653D01*
X014340Y012544D01*
X014322Y012437D01*
X014300Y012329D01*
X014275Y012223D01*
X014245Y012118D01*
X014212Y012014D01*
X014175Y011911D01*
X014134Y011810D01*
X014089Y011710D01*
X014041Y011612D01*
X013989Y011516D01*
X013934Y011421D01*
X013875Y011329D01*
X013813Y011239D01*
X013748Y011151D01*
X013680Y011066D01*
X013608Y010983D01*
X013534Y010903D01*
X013457Y010826D01*
X013377Y010752D01*
X013294Y010680D01*
X013209Y010612D01*
X013121Y010547D01*
X013031Y010485D01*
X012939Y010426D01*
X012844Y010371D01*
X012748Y010319D01*
X012650Y010271D01*
X012550Y010226D01*
X012449Y010185D01*
X012346Y010148D01*
X012242Y010115D01*
X012137Y010085D01*
X012031Y010060D01*
X011923Y010038D01*
X011816Y010020D01*
X011707Y010006D01*
X011598Y009996D01*
X011489Y009990D01*
X011380Y009988D01*
X011271Y009990D01*
X011162Y009996D01*
X011053Y010006D01*
X010944Y010020D01*
X010837Y010038D01*
X010729Y010060D01*
X010623Y010085D01*
X010518Y010115D01*
X010414Y010148D01*
X010311Y010185D01*
X010210Y010226D01*
X010110Y010271D01*
X010012Y010319D01*
X009916Y010371D01*
X009821Y010426D01*
X009729Y010485D01*
X009639Y010547D01*
X009551Y010612D01*
X009466Y010680D01*
X009383Y010752D01*
X009303Y010826D01*
X009226Y010903D01*
X009152Y010983D01*
X009080Y011066D01*
X009012Y011151D01*
X008947Y011239D01*
X008885Y011329D01*
X008826Y011421D01*
X008771Y011516D01*
X008719Y011612D01*
X008671Y011710D01*
X008626Y011810D01*
X008585Y011911D01*
X008548Y012014D01*
X008515Y012118D01*
X008485Y012223D01*
X008460Y012329D01*
X008438Y012437D01*
X008420Y012544D01*
X008406Y012653D01*
X008396Y012762D01*
X008390Y012871D01*
X008388Y012980D01*
X007719Y012389D02*
X007719Y013571D01*
X009254Y015106D01*
X008821Y012980D02*
X008823Y013081D01*
X008829Y013182D01*
X008839Y013283D01*
X008853Y013383D01*
X008871Y013482D01*
X008893Y013581D01*
X008918Y013679D01*
X008948Y013776D01*
X008981Y013871D01*
X009018Y013965D01*
X009059Y014058D01*
X009103Y014149D01*
X009151Y014238D01*
X009203Y014325D01*
X009258Y014410D01*
X009316Y014492D01*
X009377Y014573D01*
X009442Y014651D01*
X009509Y014726D01*
X009579Y014798D01*
X009653Y014868D01*
X009729Y014935D01*
X009807Y014999D01*
X009888Y015059D01*
X009971Y015116D01*
X010057Y015170D01*
X010145Y015221D01*
X010234Y015268D01*
X010325Y015312D01*
X010418Y015351D01*
X010513Y015388D01*
X010608Y015420D01*
X010705Y015449D01*
X010804Y015473D01*
X010902Y015494D01*
X011002Y015511D01*
X011102Y015524D01*
X011203Y015533D01*
X011304Y015538D01*
X011405Y015539D01*
X011506Y015536D01*
X011607Y015529D01*
X011708Y015518D01*
X011808Y015503D01*
X011907Y015484D01*
X012006Y015461D01*
X012103Y015435D01*
X012200Y015404D01*
X012295Y015370D01*
X012388Y015332D01*
X012481Y015290D01*
X012571Y015245D01*
X012660Y015196D01*
X012746Y015144D01*
X012830Y015088D01*
X012913Y015029D01*
X012992Y014967D01*
X013070Y014902D01*
X013144Y014834D01*
X013216Y014762D01*
X013285Y014689D01*
X013351Y014612D01*
X013414Y014533D01*
X013474Y014451D01*
X013530Y014367D01*
X013583Y014281D01*
X013633Y014193D01*
X013679Y014103D01*
X013722Y014012D01*
X013761Y013918D01*
X013796Y013823D01*
X013827Y013727D01*
X013855Y013630D01*
X013879Y013532D01*
X013899Y013433D01*
X013915Y013333D01*
X013927Y013232D01*
X013935Y013132D01*
X013939Y013031D01*
X013939Y012929D01*
X013935Y012828D01*
X013927Y012728D01*
X013915Y012627D01*
X013899Y012527D01*
X013879Y012428D01*
X013855Y012330D01*
X013827Y012233D01*
X013796Y012137D01*
X013761Y012042D01*
X013722Y011948D01*
X013679Y011857D01*
X013633Y011767D01*
X013583Y011679D01*
X013530Y011593D01*
X013474Y011509D01*
X013414Y011427D01*
X013351Y011348D01*
X013285Y011271D01*
X013216Y011198D01*
X013144Y011126D01*
X013070Y011058D01*
X012992Y010993D01*
X012913Y010931D01*
X012830Y010872D01*
X012746Y010816D01*
X012659Y010764D01*
X012571Y010715D01*
X012481Y010670D01*
X012388Y010628D01*
X012295Y010590D01*
X012200Y010556D01*
X012103Y010525D01*
X012006Y010499D01*
X011907Y010476D01*
X011808Y010457D01*
X011708Y010442D01*
X011607Y010431D01*
X011506Y010424D01*
X011405Y010421D01*
X011304Y010422D01*
X011203Y010427D01*
X011102Y010436D01*
X011002Y010449D01*
X010902Y010466D01*
X010804Y010487D01*
X010705Y010511D01*
X010608Y010540D01*
X010513Y010572D01*
X010418Y010609D01*
X010325Y010648D01*
X010234Y010692D01*
X010145Y010739D01*
X010057Y010790D01*
X009971Y010844D01*
X009888Y010901D01*
X009807Y010961D01*
X009729Y011025D01*
X009653Y011092D01*
X009579Y011162D01*
X009509Y011234D01*
X009442Y011309D01*
X009377Y011387D01*
X009316Y011468D01*
X009258Y011550D01*
X009203Y011635D01*
X009151Y011722D01*
X009103Y011811D01*
X009059Y011902D01*
X009018Y011995D01*
X008981Y012089D01*
X008948Y012184D01*
X008918Y012281D01*
X008893Y012379D01*
X008871Y012478D01*
X008853Y012577D01*
X008839Y012677D01*
X008829Y012778D01*
X008823Y012879D01*
X008821Y012980D01*
X007719Y012389D02*
X009254Y010854D01*
D18*
X006159Y013709D02*
X006159Y013833D01*
X006097Y013894D01*
X006097Y014016D02*
X006159Y014016D01*
X006097Y014016D02*
X005850Y014263D01*
X005788Y014263D01*
X005788Y014016D01*
X005850Y013894D02*
X005788Y013833D01*
X005788Y013709D01*
X005850Y013647D01*
X006097Y013647D01*
X006159Y013709D01*
M02*
